<svg width="44" height="30" viewBox="0 0 44 30" fill="none" xmlns="http://www.w3.org/2000/svg">
<rect x="0.5" y="0.5" width="43" height="29" rx="1.5" fill="white" stroke="#EEEFF0"/>
<path d="M7.08594 11.9588H8.34307L7.7145 10.4246L7.08594 11.9588Z" fill="#2FABF7"/>
<path d="M22.6859 10.6439C22.5716 10.5891 22.4002 10.5891 22.2288 10.5891H21.0859V11.4658H22.2288C22.4002 11.4658 22.5716 11.4658 22.6859 11.411C22.8002 11.3562 22.8573 11.1918 22.8573 11.0275C22.9145 10.8083 22.8002 10.6987 22.6859 10.6439Z" fill="#228FE0"/>
<path d="M34.9139 9V9.65753L34.5711 9H31.8854V9.65753L31.5425 9H27.8854C27.2569 9 26.7426 9.10959 26.2855 9.32877V9H23.7141V9.32877C23.4283 9.10959 23.0855 9 22.6284 9H13.4285L12.7999 10.3699L12.1713 9H9.25708V9.65753L8.91423 9H6.45711L5.31427 11.5753L4 14.4246H5.31427H6.91425L7.2571 13.5479H8.0571L8.39995 14.4246H11.7142V13.7671L11.9999 14.4246H13.657L13.9427 13.7671V14.4246H21.8855V13H21.9998C22.1141 13 22.1141 13 22.1141 13.1644V14.3698H26.2283V14.0411C26.5712 14.2055 27.0854 14.3698 27.7711 14.3698H29.4854L29.8283 13.4931H30.6283L30.9711 14.3698H34.2854V13.5479L34.7996 14.3698H37.4853V9H34.9139ZM15.5999 13.6027H14.6284V10.589L13.257 13.6027H12.3999L11.0285 10.589V13.6027H9.08565L8.68566 12.7808H6.74283L6.39997 13.6575H5.31427L7.02854 9.76712H8.45709L10.0571 13.4383V9.76712H11.5999L12.857 12.3972L13.9999 9.76712H15.5999V13.6027ZM19.4855 10.589H17.257V11.3014H19.4284V12.0685H17.257V12.8356H19.4855V13.6575H16.2856V9.76712H19.4855V10.589ZM23.7712 12.1781C23.8855 12.3972 23.9426 12.5616 23.9426 12.8904V13.6575H22.9712V13.1644C22.9712 12.9452 22.9712 12.6164 22.7998 12.3972C22.6284 12.2329 22.4569 12.2329 22.1141 12.2329H21.0855V13.6575H20.1141V9.76712H22.2855C22.7998 9.76712 23.1426 9.76712 23.4283 9.9315C23.7141 10.0959 23.8855 10.3699 23.8855 10.8082C23.8855 11.4109 23.4855 11.7397 23.1998 11.8493C23.4855 11.9041 23.6569 12.0685 23.7712 12.1781ZM25.4855 13.6027H24.514V9.71233H25.4855V13.6027ZM36.7425 13.6027H35.3711L33.5425 10.6986V13.6027H31.5997L31.2568 12.7808H29.2568L28.914 13.6575H27.8283C27.3712 13.6575 26.7997 13.5479 26.4569 13.2192C26.114 12.8904 25.9426 12.452 25.9426 11.7397C25.9426 11.1918 26.0569 10.6438 26.4569 10.2055C26.7426 9.87671 27.2569 9.76712 27.8854 9.76712H28.7997V10.589H27.8854C27.5426 10.589 27.3712 10.6438 27.1426 10.8082C26.9712 10.9726 26.8569 11.3014 26.8569 11.6849C26.8569 12.1233 26.914 12.3972 27.1426 12.6164C27.314 12.7808 27.5426 12.8356 27.8283 12.8356H28.2283L29.5426 9.82191H30.9711L32.5711 13.4931V9.82191H33.9996L35.6568 12.5068V9.82191H36.6282V13.6027H36.7425Z" fill="#0571C1"/>
<path d="M29.5938 11.9588H30.908L30.2795 10.4246L29.5938 11.9588Z" fill="#228FE0"/>
<path d="M19.8841 19.8493V16.7261L18.3984 18.2603L19.8841 19.8493Z" fill="#228FE0"/>
<path d="M13.7734 17.1096V17.8219H15.8877V18.5891H13.7734V19.411H16.1163L17.202 18.2603L16.1734 17.1096H13.7734Z" fill="#2FABF7"/>
<path d="M22.0515 17.1096H20.8516V18.0959H22.1087C22.4515 18.0959 22.6801 17.9315 22.6801 17.6028C22.623 17.274 22.3944 17.1096 22.0515 17.1096Z" fill="#228FE0"/>
<path d="M39.7086 18.0412V15.5754H39.0229H37.3086C36.7944 15.5754 36.3944 15.685 36.1086 15.9042V15.5754H33.4801C33.0801 15.5754 32.5658 15.685 32.3373 15.9042V15.5754H27.7087V15.9042C27.3659 15.6302 26.7373 15.5754 26.4516 15.5754H23.3659V15.9042C23.0802 15.6302 22.3945 15.5754 22.0517 15.5754H18.6231L17.8231 16.3974L17.0803 15.5754H11.9375V20.9453H16.966L17.766 20.1234L18.5089 20.9453H21.5945V19.685H21.9945C22.3945 19.685 22.9088 19.685 23.3088 19.5206V21.0001H25.8802V19.5754H25.9945C26.1659 19.5754 26.1659 19.5754 26.1659 19.7398V21.0001H33.9372C34.4515 21.0001 34.9658 20.8905 35.2515 20.6713V21.0001H37.7086C38.2229 21.0001 38.7372 20.9453 39.08 20.7261C39.6515 20.3973 39.9943 19.7946 39.9943 19.0823C39.9943 18.6987 39.88 18.3152 39.7086 18.0412ZM21.9945 18.9179H20.8517V20.233H19.0231L17.8803 18.9727L16.6803 20.233H12.9089V16.3426H16.7374L17.8803 17.6028L19.0803 16.3426H22.1088C22.8517 16.3426 23.7088 16.5617 23.7088 17.6028C23.6516 18.6987 22.8517 18.9179 21.9945 18.9179ZM27.7087 18.6987C27.823 18.8631 27.8802 19.0823 27.8802 19.411V20.1782H26.9088V19.685C26.9088 19.4658 26.9088 19.0823 26.7373 18.9179C26.623 18.7535 26.3945 18.7535 26.0516 18.7535H25.0231V20.1782H24.0516V16.2878H26.223C26.6802 16.2878 27.0802 16.2878 27.3659 16.4521C27.6516 16.6165 27.8802 16.8905 27.8802 17.3289C27.8802 17.9316 27.4802 18.2604 27.1945 18.3699C27.4802 18.4795 27.6516 18.5891 27.7087 18.6987ZM31.6516 17.1097H29.423V17.822H31.5944V18.5891H29.423V19.3562H31.6516V20.1782H28.4516V16.2878H31.6516V17.1097ZM34.0515 20.1782H32.223V19.3562H34.0515C34.223 19.3562 34.3372 19.3562 34.4515 19.2467C34.5087 19.1919 34.5658 19.0823 34.5658 18.9727C34.5658 18.8631 34.5087 18.7535 34.4515 18.6987C34.3944 18.6439 34.2801 18.5891 34.1087 18.5891C33.1944 18.5343 32.1087 18.5891 32.1087 17.3837C32.1087 16.8357 32.4515 16.233 33.4801 16.233H35.3658V17.1645H33.5944C33.423 17.1645 33.3087 17.1645 33.1944 17.2193C33.0801 17.2741 33.0801 17.3837 33.0801 17.4932C33.0801 17.6576 33.1944 17.7124 33.3087 17.7672C33.423 17.822 33.5372 17.822 33.6515 17.822H34.1658C34.6801 17.822 35.0229 17.9316 35.2515 18.1508C35.4229 18.3152 35.5372 18.5891 35.5372 18.9727C35.5372 19.7946 35.0229 20.1782 34.0515 20.1782ZM38.9658 19.7946C38.7372 20.0138 38.3372 20.1782 37.7658 20.1782H35.9372V19.3562H37.7658C37.9372 19.3562 38.0515 19.3562 38.1658 19.2467C38.2229 19.1919 38.2801 19.0823 38.2801 18.9727C38.2801 18.8631 38.2229 18.7535 38.1658 18.6987C38.1086 18.6439 37.9943 18.5891 37.8229 18.5891C36.9086 18.5343 35.8229 18.5891 35.8229 17.3837C35.8229 16.8357 36.1658 16.233 37.1943 16.233H39.08V17.1645H37.3658C37.1943 17.1645 37.0801 17.1645 36.9658 17.2193C36.8515 17.2741 36.8515 17.3837 36.8515 17.4932C36.8515 17.6576 36.9086 17.7124 37.0801 17.7672C37.1943 17.822 37.3086 17.822 37.4229 17.822H37.9372C38.4515 17.822 38.7943 17.9316 39.0229 18.1508C39.08 18.1508 39.08 18.2056 39.08 18.2056C39.2515 18.4247 39.3086 18.6987 39.3086 18.9727C39.3086 19.3015 39.1943 19.5754 38.9658 19.7946Z" fill="#0571C1"/>
<path d="M26.6859 17.2191C26.5716 17.1643 26.4002 17.1643 26.2288 17.1643H25.0859V18.041H26.2288C26.4002 18.041 26.5716 18.041 26.6859 17.9862C26.8002 17.9314 26.8573 17.767 26.8573 17.6027C26.9145 17.3835 26.8002 17.2739 26.6859 17.2191Z" fill="#228FE0"/>
<path d="M22.6859 10.6439C22.5716 10.5891 22.4002 10.5891 22.2288 10.5891H21.0859V11.4658H22.2288C22.4002 11.4658 22.5716 11.4658 22.6859 11.411C22.8002 11.3562 22.8573 11.1918 22.8573 11.0275C22.9145 10.8083 22.8002 10.6987 22.6859 10.6439Z" fill="#228FE0"/>
<path d="M29.5938 11.9588H30.908L30.2795 10.4246L29.5938 11.9588Z" fill="#228FE0"/>
<path d="M19.8841 19.8493V16.7261L18.3984 18.2603L19.8841 19.8493Z" fill="#228FE0"/>
<path d="M22.0515 17.1096H20.8516V18.0959H22.1087C22.4515 18.0959 22.6801 17.9315 22.6801 17.6028C22.623 17.274 22.3944 17.1096 22.0515 17.1096Z" fill="#228FE0"/>
<path d="M26.6859 17.2191C26.5716 17.1643 26.4002 17.1643 26.2288 17.1643H25.0859V18.041H26.2288C26.4002 18.041 26.5716 18.041 26.6859 17.9862C26.8002 17.9314 26.8573 17.767 26.8573 17.6027C26.9145 17.3835 26.8002 17.2739 26.6859 17.2191Z" fill="#228FE0"/>
<path d="M21.6517 20.0686L20.8517 19.2467V20.1782H18.966L17.8231 18.9179L16.566 20.1782H12.7946V16.3426H16.6232L17.8231 17.6028L18.3946 16.9453L16.966 15.5754H11.9375V20.9453H16.966L17.8231 20.1234L18.566 20.9453H21.6517V20.0686Z" fill="#2FABF7"/>
<path d="M15.7141 14.3698L14.9713 13.6027H14.6284V13.274L13.7713 12.452L13.1999 13.6027H12.3999L11.0285 10.589V13.6027H9.08565L8.68566 12.7808H6.74283L6.34283 13.6027H5.31427L7.02854 9.76712H8.45709L10.0571 13.4383V9.76712H10.9142L10.1142 9H9.25708V9.65753L8.97137 9H6.45711L5.31427 11.5753L4 14.3698H5.31427H6.97139L7.31425 13.5479H8.11424L8.51423 14.3698H11.7142V13.7123L11.9999 14.3698H13.657L13.9427 13.7123V14.3698H15.7141Z" fill="#2FABF7"/>
<path d="M13.0861 11.8491L12.1719 10.9724L12.8576 12.3971L13.0861 11.8491Z" fill="#2FABF7"/>
<path d="M39.0814 20.6714C39.5957 20.3426 39.9386 19.7947 39.9957 19.1919L39.1957 18.4248C39.2529 18.5892 39.31 18.7536 39.31 18.9728C39.31 19.3015 39.1957 19.5755 38.9671 19.7947C38.7386 20.0139 38.3386 20.1782 37.7672 20.1782H35.9386V19.3563H37.7672C37.9386 19.3563 38.0529 19.3563 38.1672 19.2467C38.2243 19.1919 38.2814 19.0824 38.2814 18.9728C38.2814 18.8632 38.2243 18.7536 38.1672 18.6988C38.11 18.644 37.9957 18.5892 37.8243 18.5892C36.91 18.5344 35.8243 18.5892 35.8243 17.3837C35.8243 16.8358 36.1672 16.3426 37.0243 16.233L36.3957 15.6303C36.2815 15.6851 36.2243 15.7399 36.1672 15.7399V15.4111H33.5386C33.1386 15.4111 32.6244 15.5207 32.3958 15.7399V15.4111H27.7101V15.7399C27.3673 15.4659 26.7387 15.4111 26.453 15.4111H23.3673V15.7399C23.0816 15.4659 22.3959 15.4111 22.0531 15.4111H18.6245L17.8245 16.233L17.0817 15.4111H16.4531L18.1674 17.055L19.0245 16.1783H22.0531C22.7959 16.1783 23.653 16.3974 23.653 17.4385C23.653 18.5344 22.8531 18.7536 21.9959 18.7536H20.8531V19.5755L21.7102 20.3974V19.5755H21.9959C22.3959 19.5755 22.9102 19.5755 23.3102 19.4111V20.8906H25.8816V19.4659H25.9959C26.1673 19.4659 26.1673 19.4659 26.1673 19.6303V20.8906H33.9386C34.4529 20.8906 34.9672 20.781 35.2529 20.5618V20.8906H37.71C38.1672 20.9454 38.6814 20.8906 39.0814 20.6714ZM27.7101 18.6988C27.8244 18.8632 27.8816 19.0824 27.8816 19.4111V20.1782H26.9101V19.6851C26.9101 19.4659 26.9101 19.0824 26.7387 18.918C26.6244 18.7536 26.3959 18.7536 26.053 18.7536H25.0245V20.1782H24.053V16.2878H26.2244C26.6816 16.2878 27.0816 16.2878 27.3673 16.4522C27.653 16.6166 27.8816 16.8906 27.8816 17.3289C27.8816 17.9317 27.4816 18.2604 27.1959 18.37C27.4816 18.4796 27.653 18.5892 27.7101 18.6988ZM31.6529 17.1098H29.4244V17.8221H31.5958V18.5892H29.4244V19.3563H31.6529V20.1782H28.453V16.2878H31.6529V17.1098ZM34.0529 20.1782H32.2244V19.3563H34.0529C34.2243 19.3563 34.3386 19.3563 34.4529 19.2467C34.5101 19.1919 34.5672 19.0824 34.5672 18.9728C34.5672 18.8632 34.5101 18.7536 34.4529 18.6988C34.3958 18.644 34.2815 18.5892 34.1101 18.5892C33.1958 18.5344 32.1101 18.5892 32.1101 17.3837C32.1101 16.8358 32.4529 16.233 33.4815 16.233H35.3672V17.1646H33.5958C33.4244 17.1646 33.3101 17.1645 33.1958 17.2193C33.0815 17.2741 33.0815 17.3837 33.0815 17.4933C33.0815 17.6577 33.1958 17.7125 33.3101 17.7673C33.4244 17.8221 33.5386 17.8221 33.6529 17.8221H34.1672C34.6815 17.8221 35.0243 17.9317 35.2529 18.1508C35.4243 18.3152 35.5386 18.5892 35.5386 18.9728C35.5386 19.7947 35.0243 20.1782 34.0529 20.1782Z" fill="#228FE0"/>
<path d="M36.7969 17.4931C36.7969 17.6575 36.854 17.7122 37.0254 17.767C37.1397 17.8218 37.254 17.8218 37.3683 17.8218H37.8826C38.2254 17.8218 38.454 17.8766 38.6826 17.9862L37.8254 17.1643H37.3112C37.1397 17.1643 37.0254 17.1643 36.9112 17.2191C36.854 17.2739 36.7969 17.3835 36.7969 17.4931Z" fill="#228FE0"/>
<path d="M34.7969 14.2056L34.9118 14.3709H34.9693L34.7969 14.2056Z" fill="#228FE0"/>
<path d="M31.6562 11.1917L32.6277 13.4382V12.1232L31.6562 11.1917Z" fill="#228FE0"/>
<path d="M21.8847 13.0001H21.999C22.1132 13.0001 22.1132 13.0001 22.1132 13.1645V14.37H26.2275V14.0412C26.5703 14.2056 27.0846 14.37 27.7703 14.37H29.4846L29.8274 13.4933H30.6274L30.9703 14.37H34.2845V13.822L33.4845 13.0549V13.6577H31.5417L31.256 12.7809H29.256L28.9132 13.6577H27.8275C27.3703 13.6577 26.7989 13.5481 26.4561 13.2193C26.1132 12.8905 25.9418 12.4522 25.9418 11.7399C25.9418 11.1919 26.0561 10.644 26.4561 10.2056C26.7418 9.87685 27.256 9.76726 27.8846 9.76726H28.7989V10.5892H27.8846C27.5418 10.5892 27.3703 10.644 27.1418 10.8083C26.9703 10.9727 26.856 11.3015 26.856 11.6851C26.856 12.1234 26.9132 12.3974 27.1418 12.6166C27.3132 12.7809 27.5418 12.8357 27.8275 12.8357H28.2275L29.5417 9.82205H30.1132L29.3132 9.05493H27.8275C27.1989 9.05493 26.6846 9.16452 26.2275 9.3837V9.05493H23.7132V9.3837C23.4275 9.16452 23.0847 9.05493 22.6275 9.05493H13.4276L12.7991 10.4248L12.1705 9.05493H9.65625L10.4562 9.82205H11.5991L12.5705 11.8494L12.9134 12.1782L13.9419 9.76726H15.5419V13.6577H14.5705V10.644L13.5991 12.8357L15.2562 14.4248H21.8275L21.8847 13.0001ZM24.5132 9.76726H25.4846V13.6577H24.5132V9.76726ZM19.4847 10.5892H17.2562V11.3015H19.4276V12.0686H17.2562V12.8357H19.4847V13.6577H16.2847V9.76726H19.4847V10.5892ZM21.0847 13.6029H20.1133V9.71246H22.2847C22.799 9.71246 23.1418 9.71246 23.4275 9.87685C23.7132 10.0412 23.8847 10.3152 23.8847 10.7536C23.8847 11.3563 23.4847 11.6851 23.1989 11.7946C23.4275 11.8494 23.5989 12.0138 23.6561 12.1234C23.7704 12.3426 23.8275 12.507 23.8275 12.8357V13.6029H22.8561V13.1097C22.8561 12.8905 22.8561 12.5618 22.6847 12.3426C22.6275 12.233 22.4561 12.233 22.1132 12.233H21.0847V13.6029Z" fill="#228FE0"/>
</svg>
