<svg width="44" height="30" viewBox="0 0 44 30" fill="none" xmlns="http://www.w3.org/2000/svg">
<rect x="0.5" y="0.5" width="43" height="29" rx="1.5" fill="white" stroke="#EEEFF0"/>
<path d="M23.5682 17.9433C25.1894 17.9433 26.5037 16.6255 26.5037 15C26.5037 13.3744 25.1894 12.0566 23.5682 12.0566C21.947 12.0566 20.6328 13.3744 20.6328 15C20.6328 16.6255 21.947 17.9433 23.5682 17.9433Z" fill="#EF9122"/>
<path d="M20.6328 15C20.6328 13.3585 21.9312 12.0566 23.5682 12.0566C25.2053 12.0566 26.5037 13.3585 26.5037 15C26.5037 16.6415 25.2053 17.9433 23.5682 17.9433" fill="#F26E21"/>
<path d="M21.5391 12.9057C22.6681 11.7736 24.5309 11.7736 25.66 12.9057C26.789 14.0377 26.789 15.9056 25.66 17.0377" fill="#F44500"/>
<path d="M6.58061 12.2266H5V17.7736H6.58061C7.42737 17.7736 8.04833 17.5472 8.55638 17.151C9.17734 16.6416 9.57249 15.8491 9.57249 15.0001C9.57249 13.3586 8.38703 12.2266 6.58061 12.2266ZM7.87898 16.4152C7.54027 16.6982 7.08867 16.868 6.41126 16.868H6.07256V13.1888H6.35481C7.03222 13.1888 7.48382 13.302 7.82253 13.6416C8.21768 13.9812 8.44348 14.4907 8.44348 15.0001C8.49993 15.5095 8.27413 16.0755 7.87898 16.4152Z" fill="#595A5B"/>
<path d="M11.1585 12.2266H10.0859V17.7736H11.1585V12.2266Z" fill="#595A5B"/>
<path d="M13.8596 14.3774C13.1822 14.151 13.0128 13.9812 13.0128 13.6982C13.0128 13.3586 13.3515 13.0756 13.8031 13.0756C14.1418 13.0756 14.4241 13.1888 14.7063 13.5284L15.2708 12.7926C14.8192 12.3963 14.2547 12.1699 13.6338 12.1699C12.6741 12.1699 11.8838 12.8492 11.8838 13.7548C11.8838 14.5472 12.2225 14.8869 13.2386 15.2831C13.6902 15.4529 13.8596 15.5095 13.9725 15.6227C14.1983 15.7359 14.3112 15.9623 14.3112 16.1887C14.3112 16.6415 13.9725 16.9812 13.4644 16.9812C12.9564 16.9812 12.5048 16.6981 12.279 16.2453L11.6016 16.9246C12.1096 17.6604 12.7306 18 13.5209 18C14.6499 18 15.4402 17.2642 15.4402 16.1887C15.4402 15.2265 15.1015 14.8303 13.8596 14.3774Z" fill="#595A5B"/>
<path d="M15.7812 14.9999C15.7812 16.6414 17.0796 17.8867 18.7167 17.8867C19.1683 17.8867 19.5634 17.7735 20.0715 17.5471V16.2452C19.6199 16.698 19.2247 16.8678 18.7731 16.8678C17.7006 16.8678 16.9103 16.0754 16.9103 14.9433C16.9103 13.8679 17.7006 13.0188 18.7167 13.0188C19.2247 13.0188 19.6199 13.1887 20.0715 13.6415V12.3396C19.6199 12.1132 19.2247 12 18.7167 12C17.1361 12.1132 15.7812 13.4151 15.7812 14.9999Z" fill="#3B3D3F"/>
<path d="M28.9344 15.9623L27.4667 12.2266H26.2812L28.5957 17.9434H29.2167L31.6441 12.2266H30.4586L28.9344 15.9623Z" fill="black"/>
<path d="M32.0938 17.7736H35.1985V16.868H33.2228V15.3397H35.1421V14.3775H33.2228V13.1888H35.1985V12.2266H32.0938V17.7736Z" fill="black"/>
<path d="M38.252 15.4529C39.0987 15.2831 39.5503 14.7171 39.5503 13.868C39.5503 12.8492 38.8165 12.2266 37.5746 12.2266H35.9375V17.7736H37.0101V15.5661H37.1794L38.7036 17.7736H40.0019L38.252 15.4529ZM37.3488 14.7737H37.0101V13.0756H37.3488C38.0262 13.0756 38.4213 13.3586 38.4213 13.9246C38.4213 14.4907 38.0262 14.7737 37.3488 14.7737Z" fill="#595A5B"/>
<path d="M6.58061 12.2266H5V17.7736H6.58061C7.42737 17.7736 8.04833 17.5472 8.55638 17.151C9.17734 16.6416 9.57249 15.8491 9.57249 15.0001C9.57249 13.3586 8.38703 12.2266 6.58061 12.2266ZM7.87898 16.4152C7.54027 16.6982 7.08867 16.868 6.41126 16.868H6.07256V13.1888H6.35481C7.03222 13.1888 7.48382 13.302 7.82253 13.6416C8.21768 13.9812 8.44348 14.4907 8.44348 15.0001C8.49993 15.5095 8.27413 16.0755 7.87898 16.4152Z" fill="#595A5B"/>
<path d="M11.1585 12.2266H10.0859V17.7736H11.1585V12.2266Z" fill="#595A5B"/>
<path d="M13.8596 14.3774C13.1822 14.151 13.0128 13.9812 13.0128 13.6982C13.0128 13.3586 13.3515 13.0756 13.8031 13.0756C14.1418 13.0756 14.4241 13.1888 14.7063 13.5284L15.2708 12.7926C14.8192 12.3963 14.2547 12.1699 13.6338 12.1699C12.6741 12.1699 11.8838 12.8492 11.8838 13.7548C11.8838 14.5472 12.2225 14.8869 13.2386 15.2831C13.6902 15.4529 13.8596 15.5095 13.9725 15.6227C14.1983 15.7359 14.3112 15.9623 14.3112 16.1887C14.3112 16.6415 13.9725 16.9812 13.4644 16.9812C12.9564 16.9812 12.5048 16.6981 12.279 16.2453L11.6016 16.9246C12.1096 17.6604 12.7306 18 13.5209 18C14.6499 18 15.4402 17.2642 15.4402 16.1887C15.4402 15.2265 15.1015 14.8303 13.8596 14.3774Z" fill="#595A5B"/>
<path d="M18.7731 17.8867C19.2247 17.8867 19.6199 17.7735 20.1279 17.5471V16.2452C19.6763 16.6981 19.2812 16.8679 18.8296 16.8679C17.757 16.8679 16.9667 16.0754 16.9667 14.9434C16.9667 14.3774 17.1925 13.9245 17.5312 13.5283L16.7974 12.7925C16.2329 13.3019 15.8377 14.0943 15.8377 14.9434C15.7813 16.6415 17.0796 17.8867 18.7731 17.8867Z" fill="#595A5B"/>
<path d="M38.252 15.4529C39.0987 15.2831 39.5503 14.7171 39.5503 13.868C39.5503 12.8492 38.8165 12.2266 37.5746 12.2266H35.9375V17.7736H37.0101V15.5661H37.1794L38.7036 17.7736H40.0019L38.252 15.4529ZM37.3488 14.7737H37.0101V13.0756H37.3488C38.0262 13.0756 38.4213 13.3586 38.4213 13.9246C38.4213 14.4907 38.0262 14.7737 37.3488 14.7737Z" fill="black"/>
<path d="M34.2389 16.8679H33.2228V15.8491L32.0938 14.717V17.7736H35.1421L34.2389 16.8679Z" fill="#3B3D3F"/>
<path d="M30.1763 12.7926L28.9344 15.9623L27.4667 12.2266H26.2812L28.5957 17.9434H29.2167L31.0231 13.6416L30.1763 12.7926Z" fill="#3B3D3F"/>
</svg>
