<svg width="44" height="30" fill="none" xmlns="http://www.w3.org/2000/svg"><path d="M42 .5H2A1.5 1.5 0 0 0 .5 2v26A1.5 1.5 0 0 0 2 29.5h40a1.5 1.5 0 0 0 1.5-1.5V2A1.5 1.5 0 0 0 42 .5Z" fill="#fff" stroke="#EEEFF0"/><path fill-rule="evenodd" clip-rule="evenodd" d="M22.5 21.673c1.751-1.64 2.856-4.02 2.856-6.664A9.177 9.177 0 0 0 22.5 8.33a8.43 8.43 0 0 0-5.813-2.327c-4.793 0-8.686 4.037-8.686 9.008 0 4.97 3.893 8.99 8.686 8.99a8.432 8.432 0 0 0 5.813-2.327Z" fill="#009DDD"/><path fill-rule="evenodd" clip-rule="evenodd" d="M22.5 21.673c1.751-1.64 2.856-4.02 2.856-6.664A9.177 9.177 0 0 0 22.5 8.33v13.344Z" fill="#009DDD"/><path fill-rule="evenodd" clip-rule="evenodd" d="M28.33 6.002c-2.243 0-4.283.881-5.83 2.327-.306.3-.595.617-.866.951h1.75c.238.3.46.635.663.952h-3.076c-.183.31-.354.627-.51.952h4.08c.135.317.271.635.373.952h-4.81a8.965 8.965 0 0 0-.255.97h5.32c.124.626.186 1.264.187 1.903 0 .987-.153 1.957-.442 2.856h-4.81c.104.323.223.64.357.952h4.08c-.154.317-.307.652-.494.951h-3.076c.201.332.422.65.663.952h1.75a9.164 9.164 0 0 1-.884.953c1.547 1.445 3.587 2.326 5.83 2.326 4.794 0 8.67-4.019 8.67-8.99 0-4.97-3.876-9.007-8.67-9.007Z" fill="#ED1C2E"/><path fill-rule="evenodd" clip-rule="evenodd" d="M35.895 20.015a.289.289 0 0 1 .078-.2.268.268 0 0 1 .446.092c.014.034.02.071.02.108 0 .159-.12.3-.272.3-.153 0-.272-.141-.272-.3Zm.272.23a.23.23 0 0 0 .22-.23c0-.123-.101-.211-.22-.211-.12 0-.221.088-.221.211 0 .124.102.23.22.23Zm-.034-.106h-.068v-.247h.102c.034 0 .05 0 .068.018.017 0 .034.035.034.053 0 .035-.017.052-.034.07l.034.106H36.2l-.034-.088h-.034v.088Zm0-.141h.068s.017-.018.017-.035l-.017-.018c-.017-.018-.034-.018-.034-.018h-.034v.07Z" fill="#ED1C2E"/><path fill-rule="evenodd" clip-rule="evenodd" d="m14.24 17.512.645-3.507-1.479 3.507h-.918l-.187-3.49-.713 3.49h-.986l.833-4.565h1.716l.017 2.82 1.19-2.82h1.82l-.85 4.565h-1.089Zm13.156-.052a2.647 2.647 0 0 1-.782.123c-.544 0-.85-.282-.85-.81 0-.107.017-.23.034-.336l.068-.37.05-.282.494-2.838h1.07l-.152.846h.544l-.137.9h-.56l-.29 1.55c0 .07-.016.124-.016.159 0 .194.119.264.374.264.119 0 .22 0 .289-.035l-.136.829Zm-4.284-2.486c0 .458.255.793.816 1.022.46.194.527.247.527.423 0 .23-.204.335-.629.335a3.29 3.29 0 0 1-.986-.158l-.153.864h.051l.204.035c.068.017.153.035.29.035.254.018.458.035.594.035 1.156 0 1.683-.388 1.683-1.234 0-.51-.22-.81-.765-1.04-.46-.176-.51-.229-.51-.405 0-.194.187-.3.527-.3.221 0 .51.018.8.053l.152-.846a6.364 6.364 0 0 0-.969-.088c-1.224 0-1.649.582-1.631 1.269Zm-4.283 2.538h-.901l.017-.387c-.272.3-.646.44-1.139.44-.578 0-.986-.405-.986-1.005 0-.899.697-1.427 1.904-1.427.119 0 .272 0 .442.017.034-.123.034-.176.034-.229 0-.247-.187-.353-.697-.353a4.35 4.35 0 0 0-.884.106l-.153.053-.102.018.153-.829c.544-.159.9-.211 1.292-.211.935 0 1.428.387 1.428 1.093 0 .194-.017.317-.102.74l-.222 1.304-.033.247-.034.194-.017.124v.105Zm-.731-1.657c-.12-.017-.17-.017-.255-.017-.612 0-.918.194-.918.564 0 .23.153.37.391.37.442 0 .765-.37.782-.916Zm4.266 1.57a3.803 3.803 0 0 1-1.105.158c-1.206 0-1.835-.582-1.835-1.675 0-1.269.799-2.203 1.887-2.203.9 0 1.461.529 1.461 1.34 0 .282-.034.546-.136.916h-2.141c-.018.07-.018.088-.018.123 0 .424.323.653.952.653.391 0 .731-.07 1.122-.247l-.187.934Zm-.51-2.204v-.194c0-.3-.186-.476-.51-.476-.34 0-.595.23-.696.67h1.206Zm12.035.6c-.153 1.233-.986 1.78-2.09 1.78-1.225 0-1.718-.758-1.718-1.71 0-1.305.833-2.204 2.125-2.204 1.122 0 1.717.74 1.717 1.675a2 2 0 0 1-.034.458Zm-1.088-.442c0-.387-.153-.757-.595-.757-.544 0-.9.687-.9 1.269 0 .51.237.846.628.846.238 0 .731-.335.833-.917.017-.123.034-.282.034-.44Z" fill="#003473"/><path fill-rule="evenodd" clip-rule="evenodd" d="M34.008 16.948a.288.288 0 0 1 .394-.261.27.27 0 0 1 .147.153c.014.034.02.071.02.108 0 .159-.12.3-.272.3-.153 0-.29-.141-.29-.3Zm.29.23c.118 0 .203-.106.203-.23 0-.123-.085-.211-.204-.211-.119 0-.22.088-.22.211 0 .124.101.23.22.23Zm-.035-.106h-.068v-.247h.102c.034 0 .051 0 .068.018.017.017.034.035.034.052 0 .036-.017.07-.05.07l.05.107h-.068l-.034-.088h-.034v.088Zm0-.141h.068v-.053h-.068v.053Zm-19.752.317.646-3.508-1.479 3.508h-.986l-.17-3.49-.646 3.49h-.985l.833-4.566h1.7l.085 2.82 1.19-2.82h1.75l-.85 4.566h-1.088Zm13.157-.053a2.648 2.648 0 0 1-.782.123c-.544 0-.85-.281-.85-.81 0-.106.017-.212.034-.335l.068-.37.05-.282.494-2.839h1.07l-.152.847h.56l-.152.899h-.561l-.273 1.551c-.016.07-.033.123-.033.159 0 .193.119.281.374.281.119 0 .22-.017.289-.035l-.136.811Z" fill="#fff"/><path fill-rule="evenodd" clip-rule="evenodd" d="m30.438 14.604-.016-.124.203-.581c-.05 0-.067 0-.084-.018a.203.203 0 0 1-.086-.017h-.102c-.357 0-.612.158-.951.599l.119-.67h-1.122l-.663 3.72h1.07c.153-.865.222-1.34.306-1.746.137-.67.613-.97.97-.899.034 0 .068 0 .119.018l.068.035.17-.317Z" fill="#003473"/><path fill-rule="evenodd" clip-rule="evenodd" d="M30.812 13.564c-.085-.035-.102-.035-.119-.035-.05-.018-.085-.018-.085-.035h-.119c-.357 0-.612.158-.934.599l.101-.564h-.985l-.663 3.72h1.088c.39-2.275.543-2.68 1.07-2.68.034 0 .085.017.136.017l.12.035.39-1.057Zm-7.428 1.146c0 .458.255.793.833 1.022.442.194.51.247.51.423 0 .23-.204.335-.629.335-.323 0-.629-.053-.985-.159l-.137.864h.051l.187.053c.068 0 .17.018.289.018.255.035.46.035.612.035 1.139 0 1.683-.388 1.683-1.234 0-.511-.221-.81-.782-1.04-.459-.176-.51-.23-.51-.405 0-.194.187-.3.544-.3.204 0 .51.017.782.053l.153-.847a6.209 6.209 0 0 0-.952-.07c-1.224 0-1.649.564-1.649 1.252Zm-4.283 2.538h-.884l.017-.388c-.272.3-.646.44-1.139.44-.578 0-.986-.405-.986-1.004 0-.9.697-1.428 1.904-1.428.119 0 .272 0 .442.018.034-.124.034-.176.034-.23 0-.246-.187-.334-.697-.334-.306 0-.646.035-.884.088l-.153.053-.102.017.153-.828c.544-.141.884-.194 1.292-.194.935 0 1.41.37 1.41 1.075 0 .194-.016.335-.084.74l-.221 1.323-.034.229-.034.194-.017.123-.017.106Zm-.782-1.657c-.12-.018-.17-.018-.238-.018-.612 0-.918.194-.918.565 0 .229.136.387.374.387.442 0 .765-.387.782-.934Zm4.334 1.569c-.374.106-.73.158-1.105.158-1.206 0-1.835-.581-1.835-1.674 0-1.27.799-2.204 1.886-2.204.884 0 1.445.53 1.445 1.34 0 .282-.034.547-.119.917h-2.159v.123c0 .423.307.652.935.652.391 0 .748-.07 1.122-.229l-.17.917Zm-.578-2.204v-.194c0-.3-.187-.475-.51-.475-.34 0-.578.246-.68.67h1.19Zm12.103.6c-.17 1.234-1.003 1.78-2.108 1.78-1.207 0-1.7-.758-1.7-1.71 0-1.304.833-2.203 2.125-2.203 1.122 0 1.717.74 1.717 1.675 0 .229 0 .246-.034.458Zm-1.122-.476c0-.388-.153-.74-.595-.74-.544 0-.884.67-.884 1.269 0 .493.238.828.612.828.238 0 .748-.335.833-.899.034-.141.034-.3.034-.458Z" fill="#fff"/></svg>