<svg width="44" height="30" viewBox="0 0 44 30" fill="none" xmlns="http://www.w3.org/2000/svg">
<rect x="0.5" y="0.5" width="43" height="29" rx="1.5" fill="white" stroke="#EEEFF0"/>
<path d="M37.0026 15C37.0026 19.9523 33.1357 23.9999 28.3021 23.9999C23.5145 23.9999 19.6016 19.9523 19.6016 15C19.6016 10.0476 23.4685 6 28.2561 6C33.1357 6 37.0026 10.0476 37.0026 15Z" fill="#FFB600"/>
<path d="M28.3021 6C33.0897 6 37.0026 10.0476 37.0026 15C37.0026 19.9523 33.1357 23.9999 28.3021 23.9999C23.5145 23.9999 19.6016 19.9523 19.6016 15" fill="#F7981D"/>
<path d="M28.2969 6C33.0845 6 36.9974 10.0476 36.9974 15C36.9974 19.9523 33.1305 23.9999 28.2969 23.9999" fill="#FF8500"/>
<path d="M16.6085 6C11.8669 6.04762 8 10.0476 8 15C8 19.9523 11.8669 23.9999 16.7005 23.9999C18.9562 23.9999 20.9818 23.0952 22.5469 21.6666C22.8692 21.3809 23.1454 21.0475 23.4216 20.7142H21.6262C21.3961 20.4285 21.1659 20.0952 20.9818 19.8095H24.0661C24.2502 19.5237 24.4344 19.1904 24.5725 18.8571H20.4754C20.3373 18.5714 20.1992 18.238 20.1071 17.9047H24.8947C25.1709 16.9999 25.355 16.0476 25.355 15.0476C25.355 14.3809 25.263 13.7619 25.1709 13.1428H19.8309C19.8769 12.8095 19.969 12.5238 20.0611 12.1904H24.8487C24.7566 11.8571 24.6185 11.5238 24.4804 11.2381H20.4293C20.5674 10.9047 20.7516 10.619 20.9357 10.2857H24.02C23.8359 9.95236 23.6057 9.61903 23.3295 9.33332H21.6262C21.9024 8.99998 22.1787 8.71427 22.5009 8.42856C20.9818 6.95238 18.9102 6.09524 16.6545 6.09524C16.6545 6 16.6545 6 16.6085 6Z" fill="#FF5050"/>
<path d="M8 14.9999C8 19.9523 11.8669 23.9999 16.7005 23.9999C18.9562 23.9999 20.9818 23.0951 22.5469 21.6666C22.8692 21.3809 23.1454 21.0475 23.4216 20.7142H21.6262C21.3961 20.4285 21.1659 20.0951 20.9818 19.8094H24.0661C24.2502 19.5237 24.4344 19.1904 24.5725 18.8571H20.4754C20.3373 18.5713 20.1992 18.238 20.1071 17.9047H24.8947C25.1709 16.9999 25.355 16.0475 25.355 15.0476C25.355 14.3809 25.263 13.7618 25.1709 13.1428H19.8309C19.8769 12.8095 19.969 12.5238 20.0611 12.1904H24.8487C24.7566 11.8571 24.6185 11.5238 24.4804 11.238H20.4293C20.5674 10.9047 20.7516 10.619 20.9357 10.2857H24.02C23.8359 9.95234 23.6057 9.61901 23.3295 9.33329H21.6262C21.9024 8.99996 22.1787 8.71425 22.5009 8.42854C20.9818 6.95235 18.9102 6.09521 16.6545 6.09521H16.6085" fill="#E52836"/>
<path d="M16.7014 23.9999C18.9571 23.9999 20.9827 23.0951 22.5478 21.6666C22.8701 21.3809 23.1463 21.0475 23.4225 20.7142H21.6271C21.397 20.4285 21.1668 20.0951 20.9827 19.8094H24.067C24.2511 19.5237 24.4353 19.1904 24.5734 18.8571H20.4763C20.3382 18.5713 20.2001 18.238 20.108 17.9047H24.8956C25.1718 16.9999 25.3559 16.0475 25.3559 15.0476C25.3559 14.3809 25.2639 13.7618 25.1718 13.1428H19.8318C19.8778 12.8095 19.9699 12.5238 20.062 12.1904H24.8496C24.7575 11.8571 24.6194 11.5238 24.4813 11.238H20.4302C20.5684 10.9047 20.7525 10.619 20.9366 10.2857H24.0209C23.8368 9.95234 23.6066 9.61901 23.3304 9.33329H21.6271C21.9034 8.99996 22.1796 8.71425 22.5018 8.42854C20.9827 6.95235 18.9111 6.09521 16.6554 6.09521H16.6094" fill="#CB2026"/>
<path d="M19.7803 17.2857L19.9184 16.4761C19.8724 16.4761 19.7803 16.5238 19.6882 16.5238C19.366 16.5238 19.32 16.3333 19.366 16.2381L19.6422 14.5714H20.1486L20.2867 13.6666H19.8264L19.9184 13.0952H18.9977C18.9977 13.0952 18.4453 16.2381 18.4453 16.619C18.4453 17.1904 18.7676 17.4285 19.1819 17.4285C19.4581 17.4285 19.6882 17.3333 19.7803 17.2857Z" fill="white"/>
<path d="M20.1016 15.7619C20.1016 17.0952 20.9762 17.4286 21.7128 17.4286C22.4033 17.4286 22.6795 17.2857 22.6795 17.2857L22.8636 16.381C22.8636 16.381 22.3573 16.619 21.8969 16.619C20.8842 16.619 21.0683 15.8571 21.0683 15.8571H22.9557C22.9557 15.8571 23.0938 15.2381 23.0938 15C23.0938 14.381 22.7716 13.6191 21.7588 13.6191C20.7921 13.5238 20.1016 14.5714 20.1016 15.7619ZM21.7128 14.381C22.2192 14.381 22.1271 15 22.1271 15.0476H21.1143C21.1143 15 21.2064 14.381 21.7128 14.381Z" fill="white"/>
<path d="M27.5632 17.2855L27.7473 16.2379C27.7473 16.2379 27.2869 16.476 26.9647 16.476C26.3202 16.476 26.044 15.9522 26.044 15.3808C26.044 14.2379 26.5964 13.6189 27.2409 13.6189C27.7013 13.6189 28.0695 13.9046 28.0695 13.9046L28.2076 12.9046C28.2076 12.9046 27.6552 12.6665 27.1488 12.6665C26.09 12.6665 25.0312 13.6189 25.0312 15.4284C25.0312 16.6189 25.5837 17.4284 26.6885 17.4284C27.0568 17.4284 27.5632 17.2855 27.5632 17.2855Z" fill="white"/>
<path d="M14.7259 13.5237C14.0814 13.5237 13.621 13.7142 13.621 13.7142L13.4829 14.5237C13.4829 14.5237 13.8973 14.3332 14.4957 14.3332C14.8179 14.3332 15.0942 14.3808 15.0942 14.6665C15.0942 14.857 15.0481 14.9046 15.0481 14.9046C15.0481 14.9046 14.7719 14.9046 14.6338 14.9046C13.8512 14.9046 12.9766 15.238 12.9766 16.3332C12.9766 17.1903 13.529 17.3808 13.8512 17.3808C14.4957 17.3808 14.7719 16.9522 14.8179 16.9522L14.7719 17.3332H15.6005L15.9688 14.7142C15.9688 13.5713 15.0481 13.5237 14.7259 13.5237ZM14.91 15.6665C14.91 15.8094 14.8179 16.5713 14.2655 16.5713C13.9893 16.5713 13.8973 16.3332 13.8973 16.1903C13.8973 15.9522 14.0354 15.6189 14.7259 15.6189C14.864 15.6665 14.91 15.6665 14.91 15.6665Z" fill="white"/>
<path d="M16.84 17.3808C17.0702 17.3808 18.2211 17.4284 18.2211 16.1427C18.2211 14.9523 17.1163 15.1904 17.1163 14.7142C17.1163 14.4761 17.3004 14.3808 17.6226 14.3808C17.7607 14.3808 18.2671 14.4285 18.2671 14.4285L18.4052 13.5713C18.4052 13.5713 18.083 13.4761 17.5306 13.4761C16.84 13.4761 16.1495 13.7618 16.1495 14.7142C16.1495 15.8094 17.3004 15.7142 17.3004 16.1427C17.3004 16.4284 16.9781 16.4761 16.748 16.4761C16.3337 16.4761 15.9194 16.3332 15.9194 16.3332L15.7812 17.1903C15.8273 17.2856 16.0575 17.3808 16.84 17.3808Z" fill="white"/>
<path d="M35.2099 12.7617L35.0258 14.0474C35.0258 14.0474 34.6575 13.5712 34.1511 13.5712C33.3225 13.5712 32.5859 14.6189 32.5859 15.8569C32.5859 16.6188 32.9542 17.4284 33.7368 17.4284C34.2892 17.4284 34.6115 17.0474 34.6115 17.0474L34.5654 17.3807H35.4861L36.1766 12.8093L35.2099 12.7617ZM34.7956 15.2855C34.7956 15.8093 34.5654 16.476 34.059 16.476C33.7368 16.476 33.5527 16.1903 33.5527 15.7141C33.5527 14.9522 33.8749 14.476 34.2892 14.476C34.6115 14.476 34.7956 14.7141 34.7956 15.2855Z" fill="white"/>
<path d="M9.70278 17.3331L10.2552 13.9046L10.3473 17.3331H10.9918L12.1887 13.9046L11.6823 17.3331H12.649L13.3856 12.7617H11.8664L10.9457 15.5712L10.8997 12.7617H9.56468L8.82812 17.3331H9.70278Z" fill="white"/>
<path d="M23.9737 17.3334C24.2499 15.762 24.2959 14.4763 24.9404 14.7144C25.0325 14.0953 25.1706 13.8572 25.2627 13.6191C25.2627 13.6191 25.2166 13.6191 25.0785 13.6191C24.6642 13.6191 24.342 14.1906 24.342 14.1906L24.434 13.6668H23.5594L22.9609 17.381H23.9737V17.3334Z" fill="white"/>
<path d="M29.679 13.5237C29.0345 13.5237 28.5742 13.7142 28.5742 13.7142L28.4361 14.5237C28.4361 14.5237 28.8504 14.3332 29.4488 14.3332C29.7711 14.3332 30.0473 14.3808 30.0473 14.6665C30.0473 14.857 30.0012 14.9046 30.0012 14.9046C30.0012 14.9046 29.725 14.9046 29.5869 14.9046C28.8043 14.9046 27.9297 15.238 27.9297 16.3332C27.9297 17.1903 28.4821 17.3808 28.8043 17.3808C29.4488 17.3808 29.725 16.9522 29.7711 16.9522L29.725 17.3332H30.5537L30.9219 14.7142C30.968 13.5713 30.0012 13.5237 29.679 13.5237ZM29.9092 15.6665C29.9092 15.8094 29.8171 16.5713 29.2647 16.5713C28.9885 16.5713 28.8964 16.3332 28.8964 16.1903C28.8964 15.9522 29.0345 15.6189 29.725 15.6189C29.8631 15.6665 29.8631 15.6665 29.9092 15.6665Z" fill="white"/>
<path d="M31.7081 17.3334C31.9843 15.762 32.0303 14.4763 32.6748 14.7144C32.7669 14.0953 32.905 13.8572 32.997 13.6191C32.997 13.6191 32.951 13.6191 32.8129 13.6191C32.3986 13.6191 32.0764 14.1906 32.0764 14.1906L32.1684 13.6668H31.2938L30.6953 17.381H31.7081V17.3334Z" fill="white"/>
<path d="M18.3516 16.619C18.3516 17.1904 18.6738 17.4285 19.0881 17.4285C19.4103 17.4285 19.6865 17.3333 19.7786 17.2857L19.9167 16.4762C19.8706 16.4762 19.7786 16.5238 19.6865 16.5238C19.3643 16.5238 19.3182 16.3333 19.3643 16.2381L19.6405 14.5714H20.1468L20.2849 13.6666H19.8246L19.9167 13.0952" fill="#DCE5E5"/>
<path d="M20.5703 15.7619C20.5703 17.0952 20.9846 17.4286 21.7212 17.4286C22.4117 17.4286 22.6879 17.2857 22.6879 17.2857L22.872 16.381C22.872 16.381 22.3657 16.619 21.9053 16.619C20.8926 16.619 21.0767 15.8571 21.0767 15.8571H22.9641C22.9641 15.8571 23.1022 15.2381 23.1022 15C23.1022 14.381 22.78 13.6191 21.7672 13.6191C20.8005 13.5238 20.5703 14.5714 20.5703 15.7619ZM21.7212 14.381C22.2276 14.381 22.3196 15 22.3196 15.0476H21.1227C21.1227 15 21.2148 14.381 21.7212 14.381Z" fill="#DCE5E5"/>
<path d="M27.5637 17.2855L27.7479 16.2379C27.7479 16.2379 27.2875 16.476 26.9653 16.476C26.3208 16.476 26.0446 15.9522 26.0446 15.3808C26.0446 14.2379 26.597 13.6189 27.2415 13.6189C27.7018 13.6189 28.0701 13.9046 28.0701 13.9046L28.2082 12.9046C28.2082 12.9046 27.6558 12.6665 27.1494 12.6665C26.0906 12.6665 25.4922 13.6189 25.4922 15.4284C25.4922 16.6189 25.5843 17.4284 26.6891 17.4284C27.0574 17.4284 27.5637 17.2855 27.5637 17.2855Z" fill="#DCE5E5"/>
<path d="M13.4829 14.5715C13.4829 14.5715 13.8973 14.381 14.4957 14.381C14.8179 14.381 15.0942 14.4287 15.0942 14.7144C15.0942 14.9048 15.0481 14.9525 15.0481 14.9525C15.0481 14.9525 14.7719 14.9525 14.6338 14.9525C13.8512 14.9525 12.9766 15.2858 12.9766 16.381C12.9766 17.2382 13.529 17.4286 13.8512 17.4286C14.4957 17.4286 14.7719 17.0001 14.8179 17.0001L14.7719 17.381H15.6005L15.9688 14.762C15.9688 13.6668 15.0481 13.6191 14.6798 13.6191L13.4829 14.5715ZM15.3704 15.6667C15.3704 15.8096 14.8179 16.5715 14.2655 16.5715C13.9893 16.5715 13.8973 16.3334 13.8973 16.1906C13.8973 15.9525 14.0354 15.6191 14.7259 15.6191C14.864 15.6667 15.3704 15.6667 15.3704 15.6667Z" fill="#DCE5E5"/>
<path d="M15.8281 17.2856C15.8281 17.2856 16.1043 17.3808 16.8869 17.3808C17.1171 17.3808 18.268 17.4284 18.268 16.1427C18.268 14.9523 17.1631 15.1904 17.1631 14.7142C17.1631 14.4761 17.3473 14.3808 17.6695 14.3808C17.8076 14.3808 18.314 14.4285 18.314 14.4285L18.4521 13.5713C18.4521 13.5713 18.1299 13.4761 17.5774 13.4761C16.8869 13.4761 16.6567 13.7618 16.6567 14.7142C16.6567 15.8094 17.3473 15.7142 17.3473 16.1427C17.3473 16.4284 17.025 16.4761 16.7949 16.4761" fill="#DCE5E5"/>
<path d="M35.0219 14.0477C35.0219 14.0477 34.6536 13.5715 34.1472 13.5715C33.3186 13.5715 33.0424 14.6191 33.0424 15.8572C33.0424 16.6191 32.9503 17.4286 33.7329 17.4286C34.2853 17.4286 34.6076 17.0476 34.6076 17.0476L34.5615 17.381H35.4822L36.1728 12.8096L35.0219 14.0477ZM34.9759 15.2857C34.9759 15.8096 34.5615 16.4762 34.0552 16.4762C33.7329 16.4762 33.5488 16.1905 33.5488 15.7143C33.5488 14.9524 33.871 14.4762 34.2853 14.4762C34.6076 14.4762 34.9759 14.7143 34.9759 15.2857Z" fill="#DCE5E5"/>
<path d="M9.70278 17.3331L10.2552 13.9046L10.3473 17.3331H10.9918L12.1887 13.9046L11.6823 17.3331H12.649L13.3856 12.7617H12.2347L10.9457 15.5712L10.8997 12.7617H10.3933L8.82812 17.3331H9.70278Z" fill="#DCE5E5"/>
<path d="M23.0078 17.3334H23.9745C24.2507 15.762 24.2968 14.4763 24.9413 14.7144C25.0333 14.0953 25.1714 13.8572 25.2635 13.6191C25.2635 13.6191 25.2175 13.6191 25.0794 13.6191C24.6651 13.6191 24.3428 14.1906 24.3428 14.1906L24.4349 13.6668" fill="#DCE5E5"/>
<path d="M28.4361 14.5715C28.4361 14.5715 28.8504 14.381 29.4488 14.381C29.7711 14.381 30.0473 14.4287 30.0473 14.7144C30.0473 14.9048 30.0012 14.9525 30.0012 14.9525C30.0012 14.9525 29.725 14.9525 29.5869 14.9525C28.8043 14.9525 27.9297 15.2858 27.9297 16.381C27.9297 17.2382 28.4821 17.4286 28.8043 17.4286C29.4488 17.4286 29.725 17.0001 29.7711 17.0001L29.725 17.381H30.5537L30.9219 14.762C30.9219 13.6668 30.0012 13.6191 29.633 13.6191L28.4361 14.5715ZM30.3235 15.6667C30.3235 15.8096 29.7711 16.5715 29.2187 16.5715C28.9424 16.5715 28.8504 16.3334 28.8504 16.1906C28.8504 15.9525 28.9885 15.6191 29.679 15.6191C29.8631 15.6667 30.3235 15.6667 30.3235 15.6667Z" fill="#DCE5E5"/>
<path d="M30.7344 17.3334H31.7011C31.9773 15.762 32.0233 14.4763 32.6678 14.7144C32.7599 14.0953 32.898 13.8572 32.9901 13.6191C32.9901 13.6191 32.944 13.6191 32.8059 13.6191C32.3916 13.6191 32.0694 14.1906 32.0694 14.1906L32.1614 13.6668" fill="#DCE5E5"/>
</svg>
