<svg width="44" height="30" viewBox="0 0 44 30" fill="none" xmlns="http://www.w3.org/2000/svg">
<rect x="0.5" y="0.5" width="43" height="29" rx="1.5" fill="white" stroke="#EEEFF0"/>
<path d="M17.7344 19.738L19.3597 10.314H21.8994L20.3248 19.738H17.7344Z" fill="#3C58BF"/>
<path d="M17.7344 19.738L19.8169 10.314H21.8994L20.3248 19.738H17.7344Z" fill="#293688"/>
<path d="M29.5135 10.4188C29.0056 10.2094 28.1929 10 27.177 10C24.6374 10 22.8088 11.3089 22.8088 13.1937C22.8088 14.6073 24.0787 15.3403 25.0945 15.8115C26.1104 16.2827 26.4151 16.5969 26.4151 17.0157C26.4151 17.644 25.6025 17.9581 24.8913 17.9581C23.8755 17.9581 23.3168 17.801 22.4533 17.4346L22.0977 17.2775L21.7422 19.4241C22.3517 19.6859 23.4691 19.9476 24.6374 19.9476C27.3294 19.9476 29.1072 18.6387 29.1072 16.6492C29.1072 15.5497 28.4469 14.712 26.9231 14.0314C26.0088 13.5602 25.4501 13.2984 25.4501 12.8272C25.4501 12.4084 25.9072 11.9895 26.9231 11.9895C27.7865 11.9895 28.3961 12.1466 28.8532 12.356L29.1072 12.4607L29.5135 10.4188Z" fill="#3C58BF"/>
<path d="M29.5135 10.4188C29.0056 10.2094 28.1929 10 27.177 10C24.6374 10 23.266 11.3089 23.266 13.1937C23.266 14.6073 24.0787 15.3403 25.0945 15.8115C26.1104 16.2827 26.4151 16.5969 26.4151 17.0157C26.4151 17.644 25.6025 17.9581 24.8913 17.9581C23.8755 17.9581 23.3168 17.801 22.4533 17.4346L22.0977 17.2775L21.7422 19.4241C22.3517 19.6859 23.4691 19.9476 24.6374 19.9476C27.3294 19.9476 29.1072 18.6387 29.1072 16.6492C29.1072 15.5497 28.4469 14.712 26.9231 14.0314C26.0088 13.5602 25.4501 13.2984 25.4501 12.8272C25.4501 12.4084 25.9072 11.9895 26.9231 11.9895C27.7865 11.9895 28.3961 12.1466 28.8532 12.356L29.1072 12.4607L29.5135 10.4188Z" fill="#293688"/>
<path d="M33.8801 10.314C33.2706 10.314 32.8134 10.3663 32.5595 10.9946L28.75 19.738H31.4928L32.0007 18.1674H35.2515L35.5563 19.738H37.9943L35.861 10.314H33.8801ZM32.7118 16.5967C32.8642 16.1255 33.7277 13.8218 33.7277 13.8218C33.7277 13.8218 33.9309 13.2459 34.0833 12.8794L34.2356 13.7695C34.2356 13.7695 34.7436 16.1255 34.8452 16.649H32.7118V16.5967Z" fill="#3C58BF"/>
<path d="M34.4896 10.314C33.8801 10.314 33.4229 10.3663 33.169 10.9946L28.75 19.738H31.4928L32.0007 18.1674H35.2515L35.5563 19.738H37.9943L35.861 10.314H34.4896ZM32.7118 16.5967C32.915 16.0731 33.7277 13.8218 33.7277 13.8218C33.7277 13.8218 33.9309 13.2459 34.0833 12.8794L34.2356 13.7695C34.2356 13.7695 34.7436 16.1255 34.8452 16.649H32.7118V16.5967Z" fill="#293688"/>
<path d="M13.0595 16.911L12.8055 15.5497C12.3484 13.979 10.8754 12.2513 9.25 11.4136L11.5357 19.7905H14.2785L18.3927 10.3665H15.6499L13.0595 16.911Z" fill="#3C58BF"/>
<path d="M13.0595 16.911L12.8055 15.5497C12.3484 13.979 10.8754 12.2513 9.25 11.4136L11.5357 19.7905H14.2785L18.3927 10.3665H16.1578L13.0595 16.911Z" fill="#293688"/>
<path d="M6 10.314L6.45714 10.4187C9.70788 11.204 11.9428 13.1935 12.8063 15.5496L11.892 11.0993C11.7396 10.471 11.2825 10.314 10.7237 10.314H6Z" fill="#FFBC00"/>
<path d="M6 10.314C9.25075 11.0993 11.9428 13.1412 12.8063 15.4972L11.9428 11.7799C11.7904 11.1517 11.2825 10.7852 10.7237 10.7852L6 10.314Z" fill="#F7981D"/>
<path d="M6 10.314C9.25075 11.0993 11.9428 13.1412 12.8063 15.4972L12.1967 13.4553C12.0444 12.8271 11.8412 12.1988 11.1301 11.937L6 10.314Z" fill="#ED7C00"/>
<path d="M15.603 16.5969L13.8761 14.8168L13.0634 16.8064L12.8602 15.4975C12.4031 13.9268 10.9301 12.199 9.30469 11.3613L11.5904 19.7383H14.3332L15.603 16.5969Z" fill="#051244"/>
<path d="M20.3248 19.7385L18.1407 17.4348L17.7344 19.7385H20.3248Z" fill="#051244"/>
<path d="M26.1612 16.4919C26.3643 16.7014 26.4659 16.8584 26.4151 17.0679C26.4151 17.6961 25.6025 18.0103 24.8913 18.0103C23.8755 18.0103 23.3168 17.8532 22.4533 17.4867L22.0977 17.3296L21.7422 19.4762C22.3517 19.738 23.4691 19.9998 24.6374 19.9998C26.2628 19.9998 27.5834 19.5286 28.3453 18.6909L26.1612 16.4919Z" fill="#051244"/>
<path d="M29.1094 19.7383H31.4966L32.0046 18.1676H35.2553L35.5601 19.7383H37.9981L37.1347 15.9163L34.0871 12.8796L34.2395 13.7173C34.2395 13.7173 34.7474 16.0734 34.849 16.5969H32.7157C32.9188 16.0734 33.7315 13.822 33.7315 13.822C33.7315 13.822 33.9347 13.2461 34.0871 12.8796" fill="#051244"/>
</svg>
