<svg version="1.1"
      xmlns="http://www.w3.org/2000/svg"
      xmlns:xlink="http://www.w3.org/1999/xlink"  id="snapshot-93411" width="346" height="50" viewBox="0 0 346 50"><desc>This image was made on Patterninja.com</desc><defs>
<!-- image 06620 -->
<g id="transformed-06620" data-image="06620" transform="translate(-51.5, 0) rotate(0, 61.5, 19)"><g><svg version="1.1" width="123px" height="39px" viewBox="0 0 123 39"><g id="original-06620"><svg xmlns="http://www.w3.org/2000/svg" fill="none" viewBox="0 0 123 39" xmlns:xlink="http://www.w3.org/1999/xlink" version="1.1" preserveAspectRatio="xMidYMid meet">
  <path fill-rule="evenodd" d="M1 1h48v18H1V1zm72 18H50V1h48v18H73zm0 1H25v18h48V20zm0 19H24V20H0V0h99v19h24v20H73zm1-1h48V20H74v18z" clip-rule="evenodd" fill="#EEEFF0" stroke="none"/>
</svg>
</g></svg></g></g>
<!-- /image 06620 -->

<!-- image 27433 -->
<g id="transformed-27433" data-image="27433" transform="translate(121.5, 0) rotate(0, 61.5, 19)"><g><svg version="1.1" width="123px" height="39px" viewBox="0 0 123 39"><g id="original-27433"><svg xmlns="http://www.w3.org/2000/svg" fill="none" viewBox="0 0 123 39" xmlns:xlink="http://www.w3.org/1999/xlink" version="1.1" preserveAspectRatio="xMidYMid meet">
  <path fill-rule="evenodd" d="M25 1h48v18H25V1zm24 19H1v18h48V20zm0 19H0V19h24V0h99v20H99v19H49zm1-1h48V20H50v18zm49-19h23V1H74v18h25z" clip-rule="evenodd" fill="#EEEFF0" stroke="none"/>
</svg>
</g></svg></g></g>
<!-- /image 27433 -->
</defs><rect x="0" y="0" width="346" height="100" fill="rgba(255, 255, 255, 0)"></rect><use xlink:href="#transformed-06620" transform="translate(-346, -100)"></use><use xlink:href="#transformed-06620" transform="translate(0, -100)"></use><use xlink:href="#transformed-06620" transform="translate(346, -100)"></use><use xlink:href="#transformed-06620" transform="translate(-346, 0)"></use><use xlink:href="#transformed-06620" transform="translate(0, 0)"></use><use xlink:href="#transformed-06620" transform="translate(346, 0)"></use><use xlink:href="#transformed-06620" transform="translate(-346, 100)"></use><use xlink:href="#transformed-06620" transform="translate(0, 100)"></use><use xlink:href="#transformed-06620" transform="translate(346, 100)"></use><use xlink:href="#transformed-27433" transform="translate(-346, -100)"></use><use xlink:href="#transformed-27433" transform="translate(0, -100)"></use><use xlink:href="#transformed-27433" transform="translate(346, -100)"></use><use xlink:href="#transformed-27433" transform="translate(-346, 0)"></use><use xlink:href="#transformed-27433" transform="translate(0, 0)"></use><use xlink:href="#transformed-27433" transform="translate(346, 0)"></use><use xlink:href="#transformed-27433" transform="translate(-346, 100)"></use><use xlink:href="#transformed-27433" transform="translate(0, 100)"></use><use xlink:href="#transformed-27433" transform="translate(346, 100)"></use></svg>
