<svg width="119" height="44" viewBox="0 0 119 44" fill="none" xmlns="http://www.w3.org/2000/svg">
<path d="M33.3948 35.4006H32.3948V36.4006V42.2337H21.4966V36.4006V35.4006H20.4966H1V26.7791L16.0824 1.63861H32.3948V25.1611V26.1611H33.3948H37.3115V35.4006H33.3948ZM20.4966 26.1611H21.4966V25.1611V11.7504V8.13965L19.6391 11.2359L11.5937 24.6467L10.6852 26.1611H12.4512H20.4966ZM114.083 35.4006H113.083V36.4006V42.2337H102.185V36.4006V35.4006H101.185H81.6885V26.7791L96.7709 1.63861H113.083V25.1611V26.1611H114.083H118V35.4006H114.083ZM101.185 26.1611H102.185V25.1611V11.7504V8.13964L100.328 11.2359L92.2822 24.6467L91.3737 26.1611H93.1398H101.185ZM59.494 43C53.4502 43 49.0176 40.5251 46.0704 36.7075C43.0999 32.8597 41.5937 27.5833 41.5937 21.9681C41.5937 16.353 43.0998 11.0934 46.0693 7.26209C49.0154 3.46087 53.4479 1 59.494 1C65.5401 1 69.9726 3.46087 72.9188 7.26209C75.8882 11.0934 77.3943 16.353 77.3943 21.9681C77.3943 27.5833 75.8881 32.8597 72.9176 36.7075C69.9704 40.5251 65.5378 43 59.494 43ZM59.494 33.6328C60.6591 33.6328 61.7218 33.3858 62.6494 32.8452C63.578 32.3041 64.3116 31.5035 64.8711 30.4898C65.9698 28.4992 66.4323 25.6243 66.4323 21.9681C66.4323 18.3126 65.9701 15.4513 64.8692 13.4749C64.3083 12.4678 63.5732 11.6758 62.6442 11.1418C61.717 10.6089 60.656 10.3672 59.494 10.3672C58.332 10.3672 57.2711 10.6089 56.3438 11.1418C55.4148 11.6758 54.6798 12.4678 54.1188 13.4749C53.0179 15.4513 52.5557 18.3126 52.5557 21.9681C52.5557 25.6243 53.0182 28.4992 54.1169 30.4898C54.6765 31.5035 55.41 32.3041 56.3386 32.8452C57.2663 33.3858 58.3289 33.6328 59.494 33.6328Z" stroke="#C10230" stroke-width="2"/>
</svg>
