<svg width="119" height="44" fill="none" xmlns="http://www.w3.org/2000/svg"><path d="M33.395 35.4h-1v6.834H21.497V35.4H1v-8.622L16.082 1.64h16.313V26.16h4.916v9.24h-3.916Zm-12.898-9.239h1V8.14l-1.858 3.096-8.045 13.41-.909 1.515h9.812Zm93.586 9.24h-1v6.833h-10.898V35.4H81.689v-8.622L96.77 1.64h16.312V26.16H118v9.24h-3.917Zm-12.898-9.24h1V8.14l-1.857 3.096-8.046 13.41-.908 1.515h9.811ZM59.494 43c-6.044 0-10.476-2.475-13.424-6.292-2.97-3.848-4.476-9.125-4.476-14.74S43.1 11.093 46.069 7.262C49.015 3.461 53.448 1 59.494 1c6.046 0 10.479 2.46 13.425 6.262 2.97 3.831 4.475 9.091 4.475 14.706s-1.506 10.892-4.476 14.74C69.97 40.525 65.538 43 59.494 43Zm0-9.367c1.165 0 2.228-.247 3.155-.788.929-.54 1.663-1.341 2.222-2.355 1.099-1.99 1.561-4.866 1.561-8.522 0-3.655-.462-6.517-1.563-8.493-.56-1.007-1.296-1.8-2.225-2.333-.927-.533-1.988-.775-3.15-.775s-2.223.242-3.15.775c-.93.534-1.664 1.326-2.225 2.333-1.101 1.976-1.563 4.838-1.563 8.493 0 3.656.462 6.531 1.56 8.522.56 1.014 1.294 1.814 2.223 2.355.927.54 1.99.788 3.155.788Z" stroke="#006940" stroke-width="2"/></svg>
