<svg width="557" height="400" viewBox="0 0 557 400" fill="none" xmlns="http://www.w3.org/2000/svg">
<path d="M552.706 315.332H494.121C498.501 297.537 500.708 279.277 500.696 260.952C500.757 224.946 492.233 189.444 475.83 157.381H517.343C518.487 157.381 519.585 156.931 520.399 156.128C521.212 155.325 521.677 154.234 521.69 153.092V153.092C521.69 151.94 521.232 150.836 520.417 150.022C519.602 149.207 518.496 148.75 517.343 148.75H471.165C431.985 79.6496 357.655 33.0003 272.456 33.0003C218.014 32.9194 165.353 52.3675 124.06 87.804H53.7595C52.6206 87.804 51.5283 88.2559 50.7229 89.0602C49.9176 89.8646 49.4651 90.9555 49.4651 92.093V92.093C49.465 93.2354 49.9158 94.3319 50.7196 95.1446C51.5235 95.9574 52.6157 96.421 53.7595 96.4349H114.517C109.64 101.095 105.027 105.913 100.574 110.996H4.3474C3.20351 110.996 2.1057 111.446 1.29191 112.249C0.478117 113.052 0.0139498 114.143 0 115.285C0 116.437 0.457971 117.541 1.27327 118.356C2.08857 119.17 3.19439 119.627 4.3474 119.627H93.3634C61.4921 159.849 44.1887 209.659 44.2694 260.952C44.2291 289.892 49.7173 318.575 60.4397 345.461H49.094C48.5211 345.454 47.9526 345.561 47.4219 345.777C46.8912 345.993 46.4092 346.312 46.0041 346.717C45.5989 347.122 45.2789 347.603 45.063 348.133C44.847 348.663 44.7395 349.231 44.7466 349.803V349.803C44.7465 350.371 44.8593 350.933 45.0785 351.457C45.2976 351.98 45.6187 352.456 46.0231 352.855C46.4275 353.254 46.9072 353.568 47.4343 353.781C47.9615 353.993 48.5256 354.099 49.094 354.092H64.1509C65.6884 357.587 67.385 361.081 69.0815 364.47H17.9198C16.7808 364.47 15.6885 364.922 14.8832 365.726C14.0778 366.531 13.6254 367.622 13.6254 368.759V368.759C13.6253 369.902 14.0761 370.998 14.8799 371.811C15.6838 372.624 16.776 373.087 17.9198 373.101H73.747C79.0825 382.475 85.0706 391.464 91.6669 400H453.298C465.657 383.973 475.837 366.382 483.571 347.685H525.985C527.138 347.685 528.244 347.227 529.059 346.413C529.874 345.599 530.332 344.495 530.332 343.343C530.332 342.775 530.22 342.213 530 341.689C529.781 341.166 529.46 340.69 529.056 340.291C528.651 339.892 528.172 339.578 527.645 339.365C527.117 339.153 526.553 339.047 525.985 339.054H486.911C488.714 334.077 490.357 329.099 491.842 323.963H552.706C553.27 323.963 553.828 323.852 554.349 323.637C554.87 323.421 555.343 323.105 555.742 322.707C556.141 322.309 556.457 321.836 556.673 321.315C556.889 320.795 557 320.237 557 319.674V319.674C557 318.532 556.549 317.435 555.745 316.622C554.942 315.81 553.849 315.346 552.706 315.332Z" fill="#EEEFF0"/>
<path d="M444.839 64.8379H358.922V349.127H444.839V64.8379Z" fill="#D7D8D9"/>
<path d="M438.629 335.182H365.43V339.9H438.629V335.182Z" fill="#EEEFF0"/>
<path d="M438.629 324.828H365.43V329.546H438.629V324.828Z" fill="#EEEFF0"/>
<path d="M438.629 314.482H365.43V319.201H438.629V314.482Z" fill="#EEEFF0"/>
<path d="M438.629 304.131H365.43V308.849H438.629V304.131Z" fill="#EEEFF0"/>
<path d="M438.629 293.775H365.43V298.494H438.629V293.775Z" fill="#EEEFF0"/>
<path d="M438.629 283.432H365.43V288.15H438.629V283.432Z" fill="#EEEFF0"/>
<path d="M438.629 273.076H365.43V277.794H438.629V273.076Z" fill="#EEEFF0"/>
<path d="M438.629 262.725H365.43V267.443H438.629V262.725Z" fill="#EEEFF0"/>
<path d="M438.629 252.379H365.43V257.097H438.629V252.379Z" fill="#EEEFF0"/>
<path d="M438.629 242.025H365.43V246.744H438.629V242.025Z" fill="#EEEFF0"/>
<path d="M438.629 231.68H365.43V236.398H438.629V231.68Z" fill="#EEEFF0"/>
<path d="M438.629 221.328H365.43V226.046H438.629V221.328Z" fill="#EEEFF0"/>
<path d="M438.629 210.973H365.43V215.691H438.629V210.973Z" fill="#EEEFF0"/>
<path d="M438.629 200.629H365.43V205.347H438.629V200.629Z" fill="#EEEFF0"/>
<path d="M438.629 190.273H365.43V194.992H438.629V190.273Z" fill="#EEEFF0"/>
<path d="M438.629 179.92H365.43V184.638H438.629V179.92Z" fill="#EEEFF0"/>
<path d="M438.629 169.576H365.43V174.294H438.629V169.576Z" fill="#EEEFF0"/>
<path d="M438.629 159.221H365.43V163.939H438.629V159.221Z" fill="#EEEFF0"/>
<path d="M438.629 148.867H365.43V153.585H438.629V148.867Z" fill="#EEEFF0"/>
<path d="M438.629 138.523H365.43V143.242H438.629V138.523Z" fill="#EEEFF0"/>
<path d="M438.629 128.17H365.43V132.888H438.629V128.17Z" fill="#EEEFF0"/>
<path d="M438.629 117.824H365.43V122.542H438.629V117.824Z" fill="#EEEFF0"/>
<path d="M445.3 97.127H402.031V101.845H445.3V97.127Z" fill="#EEEFF0"/>
<path d="M445.3 86.7734H402.031V91.4916H445.3V86.7734Z" fill="#EEEFF0"/>
<path d="M445.3 76.418H402.031V81.1362H445.3V76.418Z" fill="#EEEFF0"/>
<path d="M387.547 128.17H376.938V132.888H387.547V128.17Z" fill="white"/>
<path d="M426.743 169.576H417.062V174.294H426.743V169.576Z" fill="white"/>
<path d="M401.221 200.629H389.383V205.347H401.221V200.629Z" fill="white"/>
<path d="M421.899 221.328H410.141V226.046H421.899V221.328Z" fill="white"/>
<path d="M379.711 242.025H372.328V246.744H379.711V242.025Z" fill="white"/>
<path d="M395.297 262.684H389.383V267.452H395.297V262.684Z" fill="white"/>
<path d="M424.128 273.076H416.016V277.794H424.128V273.076Z" fill="white"/>
<path d="M386.317 304.131H379.703V308.849H386.317V304.131Z" fill="white"/>
<path d="M429.346 335.182H418.586V339.9H429.346V335.182Z" fill="white"/>
<path d="M268.539 0H237.969V83.1421H268.539V0Z" fill="#E4E5E6"/>
<path d="M269.006 230.424H178.094V349.127H269.006V230.424Z" fill="#E4E5E6"/>
<path d="M268.53 83.1426H218.219V230.544H268.53V83.1426Z" fill="#E4E5E6"/>
<path d="M264.344 217.117H218.219V223.571H264.344V217.117Z" fill="#D7D8D9"/>
<path d="M264.344 203.002H218.219V209.456H264.344V203.002Z" fill="#D7D8D9"/>
<path d="M264.344 188.887H218.219V195.341H264.344V188.887Z" fill="#D7D8D9"/>
<path d="M264.344 174.773H218.219V181.227H264.344V174.773Z" fill="#D7D8D9"/>
<path d="M264.344 160.668H218.219V167.122H264.344V160.668Z" fill="#D7D8D9"/>
<path d="M264.344 146.553H218.219V153.007H264.344V146.553Z" fill="#D7D8D9"/>
<path d="M264.344 132.438H218.219V138.891H264.344V132.438Z" fill="#D7D8D9"/>
<path d="M264.344 118.324H218.219V124.778H264.344V118.324Z" fill="#D7D8D9"/>
<path d="M264.344 104.211H218.219V110.665H264.344V104.211Z" fill="#D7D8D9"/>
<path d="M264.344 90.1055H218.219V96.5593H264.344V90.1055Z" fill="#D7D8D9"/>
<path d="M264.331 75.4902H242.172V81.9441H264.331V75.4902Z" fill="#D7D8D9"/>
<path d="M264.331 61.3848H242.172V67.8386H264.331V61.3848Z" fill="#D7D8D9"/>
<path d="M264.331 47.2715H242.172V53.7254H264.331V47.2715Z" fill="#D7D8D9"/>
<path d="M264.331 33.9766H242.172V40.4304H264.331V33.9766Z" fill="#D7D8D9"/>
<path d="M264.331 19.8613H242.172V26.3152H264.331V19.8613Z" fill="#D7D8D9"/>
<path d="M264.331 5.74609H242.172V12.2H264.331V5.74609Z" fill="#D7D8D9"/>
<path d="M319.485 0H288.914V83.1421H319.485V0Z" fill="#E4E5E6"/>
<path d="M360.923 230.424H288.992V349.127H360.923V230.424Z" fill="#E4E5E6"/>
<path d="M274.002 258.354H178.094V265.336H274.002V258.354Z" fill="#D7D8D9"/>
<path d="M274.002 244.389H178.094V250.374H274.002V244.389Z" fill="#D7D8D9"/>
<path d="M274.116 230.184H218.07V236.637H274.116V230.184Z" fill="#D7D8D9"/>
<path d="M339.226 83.1426H288.914V230.544H339.226V83.1426Z" fill="#E4E5E6"/>
<path d="M339.225 217.117H293.109V223.571H339.225V217.117Z" fill="#D7D8D9"/>
<path d="M339.225 203.002H293.109V209.456H339.225V203.002Z" fill="#D7D8D9"/>
<path d="M339.225 188.887H293.109V195.341H339.225V188.887Z" fill="#D7D8D9"/>
<path d="M339.225 174.773H293.109V181.227H339.225V174.773Z" fill="#D7D8D9"/>
<path d="M339.225 160.668H293.109V167.122H339.225V160.668Z" fill="#D7D8D9"/>
<path d="M339.225 146.553H293.109V153.007H339.225V146.553Z" fill="#D7D8D9"/>
<path d="M339.225 132.438H293.109V138.891H339.225V132.438Z" fill="#D7D8D9"/>
<path d="M339.225 118.324H293.109V124.778H339.225V118.324Z" fill="#D7D8D9"/>
<path d="M360.919 329.178H292.984V336.16H360.919V329.178Z" fill="#D7D8D9"/>
<path d="M360.919 315.213H292.984V321.198H360.919V315.213Z" fill="#D7D8D9"/>
<path d="M360.919 301.246H292.984V307.231H360.919V301.246Z" fill="#D7D8D9"/>
<path d="M360.919 287.281H292.984V293.266H360.919V287.281Z" fill="#D7D8D9"/>
<path d="M360.919 272.318H292.984V279.301H360.919V272.318Z" fill="#D7D8D9"/>
<path d="M360.919 258.354H292.984V265.336H360.919V258.354Z" fill="#D7D8D9"/>
<path d="M360.919 244.389H292.984V251.371H360.919V244.389Z" fill="#D7D8D9"/>
<path d="M360.919 230.424H292.984V236.409H360.919V230.424Z" fill="#D7D8D9"/>
<path d="M339.225 104.211H293.109V110.665H339.225V104.211Z" fill="#D7D8D9"/>
<path d="M339.225 90.1055H293.109V96.5593H339.225V90.1055Z" fill="#D7D8D9"/>
<path d="M288.996 1.99414H269.016V350.124H288.996V1.99414Z" fill="#D7D8D9"/>
<path d="M316.057 75.4902H293.898V81.9441H316.057V75.4902Z" fill="#D7D8D9"/>
<path d="M316.057 61.3848H293.898V67.8386H316.057V61.3848Z" fill="#D7D8D9"/>
<path d="M316.057 47.2715H293.898V53.7254H316.057V47.2715Z" fill="#D7D8D9"/>
<path d="M316.057 33.9766H293.898V40.4304H316.057V33.9766Z" fill="#D7D8D9"/>
<path d="M316.057 19.8613H293.898V26.3152H316.057V19.8613Z" fill="#D7D8D9"/>
<path d="M316.057 5.74609H293.898V12.2H316.057V5.74609Z" fill="#D7D8D9"/>
<path d="M164.034 196.249C163.475 196.249 162.918 196.316 162.376 196.448C161.923 194.705 161.019 193.112 159.753 191.83C158.487 190.547 156.905 189.621 155.166 189.144C153.427 188.668 151.593 188.658 149.848 189.115C148.104 189.573 146.512 190.481 145.232 191.75C144.791 190.364 144.006 189.112 142.95 188.11C141.894 187.109 140.601 186.39 139.192 186.022C137.783 185.654 136.303 185.647 134.891 186.003C133.479 186.36 132.18 187.067 131.116 188.059C130.716 185.349 129.324 182.882 127.21 181.136C125.096 179.389 122.409 178.486 119.668 178.602C116.926 178.717 114.325 179.842 112.365 181.76C110.406 183.678 109.227 186.252 109.057 188.987C108.295 188.69 107.486 188.534 106.669 188.528C104.884 188.53 103.173 189.234 101.903 190.486C100.634 191.739 99.9092 193.44 99.8855 195.221C98.6798 194.481 97.3003 194.07 95.8853 194.029C94.4703 193.989 93.0696 194.321 91.8238 194.992C90.5779 195.663 89.5306 196.65 88.7871 197.852C88.0435 199.055 87.6298 200.432 87.5873 201.845C87.0997 201.066 86.4229 200.423 85.6198 199.976C84.8166 199.529 83.9133 199.291 82.9937 199.286C82.0741 199.281 81.1681 199.508 80.3599 199.946C79.5517 200.384 78.8676 201.019 78.3711 201.792C77.8746 202.565 77.5819 203.451 77.5201 204.367C77.4584 205.283 77.6296 206.2 78.0179 207.032C78.4062 207.864 78.9989 208.585 79.741 209.128C80.4831 209.67 81.3505 210.016 82.2625 210.134V210.194H162.715V210.094C163.15 210.178 163.591 210.221 164.034 210.224C165.889 210.224 167.667 209.488 168.979 208.179C170.29 206.869 171.027 205.093 171.027 203.241C171.027 201.389 170.29 199.613 168.979 198.304C167.667 196.994 165.889 196.259 164.034 196.259V196.249ZM128.788 197.116H128.388L128.688 196.787C128.718 196.907 128.758 197.017 128.788 197.116V197.116Z" fill="white"/>
<path d="M428.528 25.4364C428.163 25.4407 427.801 25.491 427.449 25.5861C427.155 24.4486 426.566 23.4087 425.741 22.5714C424.916 21.734 423.885 21.129 422.75 20.8172C421.616 20.5055 420.42 20.4983 419.282 20.7961C418.144 21.094 417.105 21.6865 416.27 22.5138C415.905 21.3729 415.186 20.3781 414.215 19.6746C413.244 18.9712 412.074 18.5959 410.875 18.6035C409.454 18.5993 408.085 19.1382 407.049 20.1098C406.789 18.3421 405.882 16.7333 404.504 15.5941C403.126 14.455 401.373 13.8664 399.586 13.942C397.798 14.0177 396.102 14.7523 394.825 16.0038C393.548 17.2553 392.781 18.935 392.672 20.7182C392.007 20.4613 391.289 20.3697 390.58 20.4513C389.871 20.5328 389.192 20.7852 388.602 21.1865C388.013 21.5879 387.529 22.1263 387.194 22.7554C386.859 23.3845 386.682 24.0855 386.678 24.798C385.893 24.3155 384.994 24.0482 384.072 24.0231C383.151 23.9979 382.239 24.2158 381.428 24.6549C380.618 25.0939 379.937 25.7385 379.456 26.5236C378.974 27.3088 378.709 28.2069 378.686 29.1272C378.372 28.6171 377.934 28.1947 377.412 27.8996C376.89 27.6045 376.302 27.4463 375.703 27.4397C375.103 27.4331 374.512 27.5784 373.984 27.8619C373.456 28.1455 373.008 28.5581 372.683 29.0612C372.358 29.5643 372.166 30.1415 372.125 30.7387C372.085 31.336 372.196 31.9339 372.449 32.4765C372.702 33.0191 373.089 33.4888 373.574 33.8416C374.058 34.1943 374.624 34.4188 375.219 34.4938V34.5437H427.669V34.4739C427.952 34.5289 428.239 34.5589 428.528 34.5636C429.703 34.5088 430.812 34.004 431.624 33.1542C432.437 32.3043 432.89 31.1748 432.89 30C432.89 28.8253 432.437 27.6957 431.624 26.8459C430.812 25.9961 429.703 25.4913 428.528 25.4364V25.4364ZM405.55 26.015H405.29L405.49 25.7955L405.55 26.015Z" fill="#EEEFF0"/>
<path d="M505.995 250.982C505.939 249.777 505.501 248.622 504.745 247.681C503.99 246.74 502.955 246.062 501.789 245.745V245.575H500.86C500.581 245.556 500.301 245.556 500.021 245.575C499.918 245.57 499.815 245.57 499.711 245.575H498.592C498.592 245.466 498.592 245.346 498.592 245.236C498.51 243.389 497.879 241.607 496.78 240.118C495.681 238.629 494.163 237.5 492.42 236.875C490.676 236.249 488.786 236.155 486.989 236.605C485.192 237.055 483.57 238.028 482.328 239.401C481.89 237.517 480.762 235.865 479.166 234.769C477.571 233.673 475.622 233.212 473.704 233.477C471.785 233.742 470.035 234.714 468.797 236.201C467.559 237.688 466.923 239.584 467.013 241.516C467.013 241.715 467.033 241.915 467.073 242.114C466.109 241.722 465.076 241.528 464.035 241.543C462.994 241.557 461.967 241.781 461.014 242.2C460.062 242.62 459.203 243.226 458.49 243.983C457.777 244.74 457.224 245.633 456.863 246.608C456.503 247.583 456.342 248.62 456.391 249.658C456.441 250.697 456.698 251.714 457.149 252.651C457.6 253.588 458.236 254.424 459.017 255.111C459.798 255.797 460.71 256.32 461.698 256.648L501.789 256.738C503.04 256.395 504.136 255.64 504.9 254.594C505.665 253.549 506.051 252.275 505.995 250.982Z" fill="#EEEFF0"/>
<path d="M96.1953 64.4694L107.604 9.27734L109.413 9.50677L111.221 9.27734L122.63 64.4694L119.623 64.8484L109.413 15.4918L99.2024 64.8484L96.1953 64.4694Z" fill="#CACBCC"/>
<path d="M43.224 61.8457L81.1875 61.8457V51.8706L43.224 51.8706V61.8457Z" fill="#CACBCC"/>
<path d="M172.004 36.4277H169.656V52.8966H172.004V36.4277Z" fill="#CACBCC"/>
<path d="M261.999 38.3928L260.33 36.737L249.001 48.0487V38.5524L249.161 38.3928L249.001 38.2432V36.4277H246.654V37.5848L236.174 48.0487V38.5524L236.323 38.3928L236.174 38.2432V36.4277H233.826V37.5848L223.336 48.0487V38.5524L223.496 38.3928L223.336 38.2432V36.4277H220.988V37.5848L210.508 48.0487V38.5524L210.658 38.3928L210.508 38.2432V36.4277H208.161V37.5848L197.671 48.0487V38.5524L197.83 38.3928L197.671 38.2432V36.4277H195.323V37.5848L184.843 48.0487V38.5524L184.993 38.3928L184.843 38.2432V36.4277H182.485V37.5848L170.297 49.7644L171.955 51.4203L182.485 40.8966V52.9065H184.843V51.3704L195.323 40.8966V52.9065H197.671V51.3704L208.161 40.8966V52.9065H210.508V51.3704L220.988 40.8966V52.9065H223.336V51.3704L233.826 40.8966V52.9065H236.174V51.3704L246.654 40.8966V52.9065H249.001V51.3704L261.999 38.3928Z" fill="#CACBCC"/>
<path d="M172.165 38.3928L170.497 36.737L159.168 48.0487V38.5524L159.327 38.3928L159.168 38.2432V36.4277H156.82V37.5848L146.34 48.0487V36.4277H143.992V52.9065H146.34V51.3704L156.82 40.8966V52.9065H159.168V51.3704L172.165 38.3928Z" fill="#CACBCC"/>
<path d="M117.664 92.7186V90.3744H103.288L103.138 90.2148L102.978 90.3744H101.16V92.7186H102.319L112.799 103.192H103.288L103.138 103.033L102.978 103.192H101.16V105.537H102.319L112.799 116H103.288L103.138 115.851L102.978 116H101.16V118.345H102.319L112.099 128.11H103.288L103.138 127.96L102.978 128.11H101.16V130.464H102.319L112.799 140.928H103.288L103.138 140.768L102.978 140.928H101.16V143.272H102.319L112.799 153.746H103.288L103.138 153.586L102.978 153.746H101.16V156.09H102.319L112.799 166.554H103.288L103.138 166.394L102.978 166.554H101.16V168.898H102.319L112.799 179.372H103.288L103.138 179.212L102.978 179.372H101.16V181.716H102.319L112.799 192.18H101.16V193.946L100.88 194.225L101.16 194.504V194.524H101.19L112.209 205.537H102.698L102.548 205.377L102.389 205.537H100.57V207.881H101.729L112.209 218.345H102.698L102.548 218.195L102.389 218.345H100.57V220.689H101.729L112.209 231.162H102.698L102.548 231.003L102.389 231.162H100.57V233.507H101.729L112.209 243.97H102.698L102.548 243.821L102.389 243.97H100.57V246.325H101.729L112.209 256.788H102.698L102.548 256.629L102.389 256.788H100.57V259.133H101.729L112.209 269.596H102.698L102.548 269.447L102.389 269.596H100.57V271.951H101.729L112.209 282.414H102.698L102.548 282.255L102.389 282.414H100.57V284.758H101.729L112.209 295.232H102.698L102.548 295.073L102.389 295.232H100.57V297.576H101.729L112.209 308.04H100.57V310.384H117.074V308.04H115.536L105.046 297.576H117.074V295.232H115.536L105.046 284.758H117.074V282.414H115.536L105.046 271.951H117.074V269.596H115.536L105.046 259.133H117.074V256.788H115.536L105.046 246.325H117.074V243.97H115.536L105.046 233.507H117.074V231.162H115.536L105.046 220.689H117.074V218.345H115.536L105.046 207.881H117.074V205.537H115.536L104.507 194.524H117.664V192.18H116.125L105.635 181.716H117.664V179.372H116.125L105.635 168.898H117.664V166.554H116.125L105.635 156.09H117.664V153.746H116.125L105.635 143.272H117.664V140.928H116.125L105.635 130.464H114.447L114.517 130.524L114.577 130.464H117.664V128.11H115.416L105.635 118.345H117.664V116H116.125L105.635 105.537H117.664V103.192H116.125L105.635 92.7186H117.664Z" fill="#CACBCC"/>
<path d="M110.459 2.37999L109.898 3.72461L190.082 37.0341L190.642 35.6895L110.459 2.37999Z" fill="#CACBCC"/>
<path d="M226.826 37.3758L226.456 37.2661L112.516 4.9768L112.915 3.57031L113.275 3.68004L227.225 35.9693L226.826 37.3758Z" fill="#CACBCC"/>
<path d="M68.4237 35.5416L67.7344 34.584L68.0441 34.3646L110.463 3.51172L111.153 4.4793L110.843 4.69875L68.4237 35.5416Z" fill="#CACBCC"/>
<path d="M51.757 38.1344L51.1875 37.0871L109.212 4.56836L109.781 5.60577L51.757 38.1344Z" fill="#CACBCC"/>
<path d="M105.281 5.24708C105.281 6.12106 105.541 6.97542 106.027 7.70212C106.513 8.42881 107.205 8.9952 108.013 9.32966C108.822 9.66412 109.712 9.75163 110.57 9.58112C111.429 9.41061 112.218 8.98975 112.836 8.37175C113.455 7.75375 113.877 6.96637 114.048 6.10917C114.218 5.25198 114.131 4.36348 113.796 3.55602C113.461 2.74856 112.894 2.05841 112.166 1.57285C111.438 1.08729 110.582 0.828125 109.707 0.828125C108.533 0.828125 107.408 1.29369 106.578 2.12241C105.748 2.95112 105.281 4.0751 105.281 5.24708V5.24708Z" fill="#EEEFF0"/>
<path d="M48.2929 49.9844L81.2812 49.9844V33.2462H48.2929V49.9844Z" fill="#CACBCC"/>
<path d="M115.255 339.342H118.312L118.312 77.287H115.255L115.255 339.342Z" fill="#CACBCC"/>
<path d="M100.513 339.531H103.57L103.57 77.4764H100.513L100.513 339.531Z" fill="#CACBCC"/>
<path d="M138.099 326.334H80.7344V341.716H138.099V326.334Z" fill="#EEEFF0"/>
<path d="M138.099 328.848H80.7344V332.508H138.099V328.848Z" fill="#CACBCC"/>
<path d="M138.099 334.832H80.7344V338.493H138.099V334.832Z" fill="#CACBCC"/>
<path d="M92.9219 82.7034H121.674L125.91 77.7158V60.7383H92.9219V82.7034Z" fill="#CACBCC"/>
<path d="M101.156 63.2617H113.624L121.047 74.743H101.156V63.2617Z" fill="white"/>
<path d="M41 49.9846V52.9771H309.972L310.651 50.6928L309.922 50.4834L307.974 49.9846L260.739 36.0195H144.371L122.622 49.9846H41ZM299.602 49.9846H127.037L145.02 38.4933H260.649L299.602 49.9846Z" fill="#CACBCC"/>
<path d="M125.91 74.743L118.008 63.2617H125.91V74.743Z" fill="white"/>
<path d="M73.5185 40.8281H72V49.9852H73.5185V40.8281Z" fill="white"/>
<path d="M65.5498 40.8281H64.0312V49.9852H65.5498V40.8281Z" fill="white"/>
<path d="M57.581 40.8281H56.0625V49.9852H57.581V40.8281Z" fill="white"/>
<path d="M76.7529 53.8262H75.2344V57.9957H76.7529V53.8262Z" fill="white"/>
<path d="M70.2998 53.8262H68.7812V57.9957H70.2998V53.8262Z" fill="white"/>
<path d="M63.8623 53.8262H62.3438V57.9957H63.8623V53.8262Z" fill="white"/>
<path d="M57.4092 53.8262H55.8906V57.9957H57.4092V53.8262Z" fill="white"/>
<path d="M50.956 53.8262H49.4375V57.9957H50.956V53.8262Z" fill="white"/>
<path d="M93.0494 86.4531H121.672V82.7025H93.0494V86.4531Z" fill="#CACBCC"/>
<path d="M109.703 6.46249C109.428 6.46446 109.158 6.38457 108.928 6.23297C108.698 6.08138 108.519 5.86494 108.412 5.61118C108.306 5.35742 108.278 5.07781 108.331 4.80793C108.384 4.53804 108.517 4.29007 108.711 4.09556C108.906 3.90105 109.155 3.76879 109.425 3.71561C109.695 3.66243 109.975 3.69073 110.229 3.79691C110.484 3.90309 110.7 4.08234 110.852 4.31188C111.004 4.54142 111.084 4.81086 111.082 5.08593C111.082 5.2667 111.046 5.4457 110.977 5.61271C110.908 5.77972 110.806 5.93148 110.678 6.0593C110.55 6.18713 110.398 6.28852 110.231 6.3577C110.064 6.42688 109.884 6.46249 109.703 6.46249V6.46249ZM109.703 4.46747C109.578 4.46549 109.456 4.50066 109.351 4.5685C109.246 4.63634 109.164 4.73378 109.115 4.84842C109.066 4.96306 109.052 5.08972 109.075 5.21227C109.098 5.33483 109.157 5.44773 109.245 5.53662C109.332 5.62551 109.444 5.68636 109.567 5.71143C109.689 5.73649 109.816 5.72464 109.932 5.67739C110.047 5.63013 110.146 5.5496 110.216 5.44605C110.286 5.3425 110.323 5.22061 110.323 5.0959C110.324 5.01337 110.309 4.93139 110.279 4.85464C110.248 4.77789 110.203 4.70787 110.145 4.64859C110.088 4.58931 110.019 4.54192 109.943 4.50913C109.868 4.47634 109.786 4.4588 109.703 4.4575V4.46747Z" fill="white"/>
<path d="M195.077 341.066H178.094V349.545H195.077V341.066Z" fill="#D7D8D9"/>
<path d="M213.226 341.066H196.242V349.545H213.226V341.066Z" fill="#D7D8D9"/>
<path d="M231.452 341.066H214.469V349.545H231.452V341.066Z" fill="#D7D8D9"/>
<path d="M249.765 341.066H232.781V349.545H249.765V341.066Z" fill="#D7D8D9"/>
<path d="M203.663 331.422H186.68V339.901H203.663V331.422Z" fill="#D7D8D9"/>
<path d="M185.432 331.422H178.039V339.901H185.432V331.422Z" fill="#D7D8D9"/>
<path d="M221.812 331.422H204.828V339.901H221.812V331.422Z" fill="#D7D8D9"/>
<path d="M240.038 331.422H223.055V339.901H240.038V331.422Z" fill="#D7D8D9"/>
<path d="M258.351 331.422H241.367V339.901H258.351V331.422Z" fill="#D7D8D9"/>
<path d="M195.077 321.865H178.094V330.344H195.077V321.865Z" fill="#D7D8D9"/>
<path d="M213.226 321.865H196.242V330.344H213.226V321.865Z" fill="#D7D8D9"/>
<path d="M231.452 321.865H214.469V330.344H231.452V321.865Z" fill="#D7D8D9"/>
<path d="M249.765 321.865H232.781V330.344H249.765V321.865Z" fill="#D7D8D9"/>
<path d="M203.663 312.219H186.68V320.698H203.663V312.219Z" fill="#D7D8D9"/>
<path d="M185.441 312.219H178.078V320.698H185.441V312.219Z" fill="#D7D8D9"/>
<path d="M221.812 312.219H204.828V320.698H221.812V312.219Z" fill="#D7D8D9"/>
<path d="M240.038 312.219H223.055V320.698H240.038V312.219Z" fill="#D7D8D9"/>
<path d="M258.351 312.219H241.367V320.698H258.351V312.219Z" fill="#D7D8D9"/>
<path d="M195.077 302.664H178.094V311.143H195.077V302.664Z" fill="#D7D8D9"/>
<path d="M213.226 302.664H196.242V311.143H213.226V302.664Z" fill="#D7D8D9"/>
<path d="M231.452 302.664H214.469V311.143H231.452V302.664Z" fill="#D7D8D9"/>
<path d="M249.765 302.664H232.781V311.143H249.765V302.664Z" fill="#D7D8D9"/>
<path d="M203.663 293.018H186.68V301.496H203.663V293.018Z" fill="#D7D8D9"/>
<path d="M185.431 293.018H178.148V301.496H185.431V293.018Z" fill="#D7D8D9"/>
<path d="M221.812 293.018H204.828V301.496H221.812V293.018Z" fill="#D7D8D9"/>
<path d="M240.038 293.018H223.055V301.496H240.038V293.018Z" fill="#D7D8D9"/>
<path d="M258.351 293.018H241.367V301.496H258.351V293.018Z" fill="#D7D8D9"/>
<path d="M195.077 283.461H178.094V291.94H195.077V283.461Z" fill="#D7D8D9"/>
<path d="M213.226 283.461H196.242V291.94H213.226V283.461Z" fill="#D7D8D9"/>
<path d="M231.452 283.461H214.469V291.94H231.452V283.461Z" fill="#D7D8D9"/>
<path d="M249.765 283.461H232.781V291.94H249.765V283.461Z" fill="#D7D8D9"/>
<path d="M221.812 273.816H204.828V282.295H221.812V273.816Z" fill="#D7D8D9"/>
<path d="M240.038 273.816H223.055V282.295H240.038V273.816Z" fill="#D7D8D9"/>
<path d="M258.351 273.816H241.367V282.295H258.351V273.816Z" fill="#D7D8D9"/>
<path d="M199.403 317.706C198.96 317.706 198.536 317.531 198.223 317.218C197.91 316.906 197.734 316.482 197.734 316.04V293.367C197.734 292.925 197.91 292.501 198.223 292.189C198.536 291.877 198.96 291.701 199.403 291.701V291.701C199.845 291.701 200.27 291.877 200.582 292.189C200.895 292.501 201.071 292.925 201.071 293.367V316.04C201.071 316.482 200.895 316.906 200.582 317.218C200.27 317.531 199.845 317.706 199.403 317.706V317.706Z" fill="#C10230"/>
<path d="M212.723 307.691C212.281 307.691 211.856 307.516 211.543 307.203C211.23 306.891 211.055 306.467 211.055 306.026V293.357C211.055 292.915 211.23 292.492 211.543 292.179C211.856 291.867 212.281 291.691 212.723 291.691V291.691C212.943 291.69 213.16 291.732 213.363 291.816C213.566 291.899 213.751 292.021 213.906 292.176C214.061 292.331 214.184 292.515 214.267 292.718C214.351 292.921 214.393 293.138 214.391 293.357V306.026C214.391 306.467 214.216 306.891 213.903 307.203C213.59 307.516 213.166 307.691 212.723 307.691V307.691Z" fill="#C10230"/>
<path d="M206.075 301.687C205.631 301.684 205.207 301.506 204.894 301.192C204.582 300.878 204.406 300.454 204.406 300.011V293.347C204.406 292.906 204.582 292.482 204.895 292.17C205.208 291.857 205.632 291.682 206.075 291.682V291.682C206.517 291.682 206.941 291.857 207.254 292.17C207.567 292.482 207.743 292.906 207.743 293.347V300.011C207.744 300.23 207.702 300.448 207.619 300.651C207.536 300.855 207.413 301.039 207.258 301.195C207.103 301.351 206.919 301.475 206.715 301.559C206.512 301.643 206.295 301.687 206.075 301.687V301.687Z" fill="#C10230"/>
<path d="M202.731 294.594C203.088 294.596 203.437 294.703 203.734 294.901C204.03 295.1 204.262 295.382 204.399 295.711V290.494C204.399 290.052 204.224 289.628 203.911 289.316C203.598 289.004 203.173 288.828 202.731 288.828C202.288 288.828 201.864 289.004 201.551 289.316C201.238 289.628 201.062 290.052 201.062 290.494V295.711C201.199 295.381 201.43 295.099 201.727 294.9C202.024 294.701 202.373 294.594 202.731 294.594Z" fill="#C10230"/>
<path d="M209.377 296.539C209.738 296.537 210.091 296.642 210.392 296.841C210.692 297.04 210.927 297.324 211.066 297.656V292.429C211.033 292.009 210.843 291.616 210.532 291.329C210.222 291.042 209.815 290.883 209.392 290.883C208.969 290.883 208.562 291.042 208.252 291.329C207.942 291.616 207.751 292.009 207.719 292.429V297.656C207.854 297.328 208.084 297.047 208.379 296.848C208.674 296.649 209.021 296.542 209.377 296.539Z" fill="#C10230"/>
<path d="M186.84 302.354C187.06 302.355 187.278 302.313 187.482 302.23C187.685 302.147 187.87 302.024 188.026 301.87C188.182 301.715 188.306 301.531 188.391 301.328C188.475 301.125 188.519 300.908 188.519 300.688V293.027C188.519 292.808 188.475 292.59 188.391 292.387C188.306 292.185 188.182 292.001 188.026 291.846C187.87 291.691 187.685 291.568 187.482 291.485C187.278 291.402 187.06 291.36 186.84 291.361V291.361C186.398 291.361 185.973 291.537 185.661 291.849C185.348 292.162 185.172 292.585 185.172 293.027V300.688C185.172 301.13 185.348 301.554 185.661 301.866C185.973 302.178 186.398 302.354 186.84 302.354V302.354Z" fill="#C10230"/>
<path d="M192.778 311.732C193.22 311.732 193.645 311.557 193.957 311.245C194.27 310.932 194.446 310.508 194.446 310.067V293.398C194.446 292.956 194.27 292.533 193.957 292.22C193.645 291.908 193.22 291.732 192.778 291.732V291.732C192.335 291.732 191.911 291.908 191.598 292.22C191.285 292.533 191.109 292.956 191.109 293.398V310.067C191.109 310.508 191.285 310.932 191.598 311.245C191.911 311.557 192.335 311.732 192.778 311.732V311.732Z" fill="#C10230"/>
<path d="M196.075 294.643C195.717 294.642 195.367 294.748 195.07 294.947C194.772 295.146 194.541 295.429 194.406 295.76V290.543C194.406 290.101 194.582 289.677 194.895 289.365C195.208 289.052 195.632 288.877 196.075 288.877C196.517 288.877 196.941 289.052 197.254 289.365C197.567 289.677 197.743 290.101 197.743 290.543V295.76C197.607 295.43 197.375 295.147 197.079 294.949C196.782 294.75 196.432 294.643 196.075 294.643V294.643Z" fill="#C10230"/>
<path d="M189.788 296.58C189.479 296.606 189.186 296.727 188.95 296.928C188.713 297.128 188.546 297.397 188.47 297.697V292.48C188.42 292.28 188.417 292.072 188.46 291.87C188.503 291.669 188.591 291.48 188.718 291.318C188.845 291.155 189.008 291.024 189.193 290.934C189.379 290.844 189.582 290.797 189.788 290.797C189.995 290.797 190.198 290.844 190.384 290.934C190.569 291.024 190.731 291.155 190.859 291.318C190.986 291.48 191.074 291.669 191.117 291.87C191.16 292.072 191.157 292.28 191.107 292.48V297.697C191.034 297.395 190.867 297.125 190.63 296.924C190.393 296.723 190.098 296.603 189.788 296.58V296.58Z" fill="#C10230"/>
<path d="M214.384 283.49H185.172V293.066H214.384V283.49Z" fill="#C10230"/>
<path d="M186.401 282.035H213.065C213.391 282.035 213.704 282.164 213.934 282.395C214.165 282.625 214.294 282.937 214.294 283.262V283.95H185.172V283.292C185.168 283.128 185.197 282.966 185.257 282.813C185.317 282.661 185.407 282.522 185.521 282.405C185.636 282.288 185.773 282.195 185.924 282.131C186.075 282.068 186.237 282.035 186.401 282.035V282.035Z" fill="#C10230"/>
<path d="M142.799 393.782C167.446 393.782 187.426 392.589 187.426 391.118C187.426 389.648 167.446 388.455 142.799 388.455C118.152 388.455 98.1719 389.648 98.1719 391.118C98.1719 392.589 118.152 393.782 142.799 393.782Z" fill="white"/>
<path d="M143.637 303.259H158.263V299H120.589V303.259H123.156L99.7188 390.591L102.926 390.741L126.373 303.259H136.274L138.332 311.828L119.16 391.239L122.527 391.359L139.96 318.611L157.373 391.299L160.62 390.87L141.579 311.828L143.637 303.259ZM139.531 303.259H140.39L139.96 305.055L139.531 303.259Z" fill="#C10230"/>
<path d="M155.622 301.343L152.125 300.346L177.35 390.771L180.727 390.621L155.622 301.343Z" fill="#C10230"/>
<path d="M124.007 376.684H104.875V379.576H124.007V376.684Z" fill="#C10230"/>
<path d="M126.78 365.762H107.648V368.655H126.78V365.762Z" fill="#C10230"/>
<path d="M128.835 355.238H109.703V358.131H128.835V355.238Z" fill="#C10230"/>
<path d="M131.397 343.756H112.266V346.649H131.397V343.756Z" fill="#C10230"/>
<path d="M134.733 331.797H115.602V334.69H134.733V331.797Z" fill="#C10230"/>
<path d="M138.397 320.146H119.266V323.039H138.397V320.146Z" fill="#C10230"/>
<path d="M140.435 308.924H121.953V311.817H140.435V308.924Z" fill="#C10230"/>
<path d="M175.632 377.154H156.5V380.047H175.632V377.154Z" fill="#C10230"/>
<path d="M172.147 365.762H153.016V368.655H172.147V365.762Z" fill="#C10230"/>
<path d="M170.022 355.238H150.891V358.131H170.022V355.238Z" fill="#C10230"/>
<path d="M166.475 343.756H147.344V346.649H166.475V343.756Z" fill="#C10230"/>
<path d="M164.311 331.797H145.18V334.69H164.311V331.797Z" fill="#C10230"/>
<path d="M160.444 320.146H141.312V323.039H160.444V320.146Z" fill="#C10230"/>
<path d="M156.121 308.426L139.836 308.924V311.817L156.121 311.319V308.426Z" fill="#C10230"/>
<path d="M143.626 303.259H158.252V299H120.578V303.259H136.263L138.321 311.828L139.95 318.611L157.363 391.299L160.44 390.561L141.568 311.828L143.626 303.259ZM139.52 303.259H140.379L139.95 305.055L139.52 303.259Z" fill="#C10230"/>
<rect x="228.82" y="394.016" width="195.812" height="5.98504" rx="2.99252" fill="#8C0223"/>
<path d="M333.058 127.68H321.344V399.583H333.058V127.68Z" fill="#A60229"/>
<path d="M445.089 174.454L404.435 202.51L404.137 202.708H231.297V146.25H404.137L426.723 161.792L445.089 174.454Z" fill="#C10230"/>
<path d="M245.795 272.029H418.636V215.57H245.795L204.844 243.824L245.795 272.029Z" fill="#C10230"/>
<path d="M378.872 215.521C378.872 215.521 359.116 268.255 233.531 263.588L245.792 272.029H418.632V215.571L378.872 215.521Z" fill="#B3022C"/>
<path d="M418.639 221.627C418.639 221.627 404.443 269.793 351.578 271.729L418.639 272.027V221.627Z" fill="#A60229"/>
<path d="M411.591 222.62V265.026H247.984L217.258 243.823L247.984 222.62H411.591V222.62ZM413.925 220.336H247.289L213.188 243.823L247.289 267.31H413.925V220.336V220.336Z" fill="white"/>
<path d="M386.314 146.25C386.314 146.25 356.928 199.232 231.344 194.565V202.708H404.184L445.086 174.454L404.184 146.25H386.314Z" fill="#B3022C"/>
<path d="M445.091 174.453L404.438 202.508L363.734 202.359C401.509 201.019 419.528 175.943 426.725 161.791L445.091 174.453Z" fill="#A60229"/>
<path d="M401.953 153.301L432.679 174.454L401.953 195.657H238.346V153.301H401.953V153.301ZM402.698 150.967H236.062V197.99H402.698L436.799 174.454L402.698 150.967V150.967Z" fill="white"/>
<path d="M333.058 202.709H321.344V207.779H333.058V202.709Z" fill="#990226"/>
<path d="M333.058 271.977H321.344V277.046H333.058V271.977Z" fill="#990226"/>
<path d="M333.059 271.977H328.492V399.531H333.059V271.977Z" fill="#990226"/>
<path d="M303.483 181.37V178.946H295.469V174.591H303.318V172.167H295.469V168.095H303.483V165.671H292.711V181.37H303.483Z" fill="white"/>
<path d="M318.477 181.37L314.635 175.203C316.521 174.897 318.359 173.391 318.359 170.59C318.359 167.695 316.332 165.671 313.221 165.671H306.315V181.37H309.072V175.509H311.807L315.295 181.37H318.477ZM315.531 170.59C315.531 172.097 314.399 173.085 312.844 173.085H309.072V168.095H312.844C314.399 168.095 315.531 169.084 315.531 170.59Z" fill="white"/>
<path d="M333.278 181.37L329.436 175.203C331.321 174.897 333.16 173.391 333.16 170.59C333.16 167.695 331.133 165.671 328.022 165.671H321.115V181.37H323.873V175.509H326.607L330.096 181.37H333.278ZM330.331 170.59C330.331 172.097 329.2 173.085 327.644 173.085H323.873V168.095H327.644C329.2 168.095 330.331 169.084 330.331 170.59Z" fill="white"/>
<path d="M335.209 173.532C335.209 178.216 338.532 181.652 343.246 181.652C347.961 181.652 351.284 178.216 351.284 173.532C351.284 168.848 347.961 165.412 343.246 165.412C338.532 165.412 335.209 168.848 335.209 173.532ZM348.456 173.532C348.456 176.757 346.405 179.205 343.246 179.205C340.064 179.205 338.037 176.757 338.037 173.532C338.037 170.284 340.064 167.86 343.246 167.86C346.405 167.86 348.456 170.284 348.456 173.532Z" fill="white"/>
<path d="M366.102 181.37L362.26 175.203C364.145 174.897 365.984 173.391 365.984 170.59C365.984 167.695 363.957 165.671 360.845 165.671H353.939V181.37H356.697V175.509H359.431L362.92 181.37H366.102ZM363.155 170.59C363.155 172.097 362.024 173.085 360.468 173.085H356.697V168.095H360.468C362.024 168.095 363.155 169.084 363.155 170.59Z" fill="white"/>
<path d="M316.683 250.999V247.445H318.781V245.02H316.683V235.3H312.888L306.43 245.232V247.445H313.925V250.999H316.683ZM313.925 245.02H309.14L313.925 237.771V245.02Z" fill="white"/>
<path d="M320.409 243.161C320.409 247.115 322.295 251.281 326.702 251.281C331.11 251.281 332.996 247.115 332.996 243.161C332.996 239.207 331.11 235.064 326.702 235.064C322.295 235.064 320.409 239.207 320.409 243.161ZM330.191 243.161C330.191 246.15 329.271 248.833 326.702 248.833C324.133 248.833 323.214 246.15 323.214 243.161C323.214 240.172 324.133 237.512 326.702 237.512C329.271 237.512 330.191 240.172 330.191 243.161Z" fill="white"/>
<path d="M344.88 250.999V247.445H346.978V245.02H344.88V235.3H341.085L334.627 245.232V247.445H342.122V250.999H344.88ZM342.122 245.02H337.338L342.122 237.771V245.02Z" fill="white"/>
</svg>
