<svg width="557" height="400" fill="none" xmlns="http://www.w3.org/2000/svg"><path d="M552.706 315.332h-58.585a226.908 226.908 0 0 0 6.575-54.38 226.556 226.556 0 0 0-24.866-103.571h41.513c1.144 0 2.242-.45 3.056-1.253a4.338 4.338 0 0 0 1.291-3.036 4.347 4.347 0 0 0-4.347-4.342h-46.178C431.985 79.65 357.655 33 272.456 33A227.352 227.352 0 0 0 124.06 87.804h-70.3a4.297 4.297 0 0 0-3.037 1.256 4.287 4.287 0 0 0-1.258 3.033 4.34 4.34 0 0 0 1.255 3.052 4.35 4.35 0 0 0 3.04 1.29h60.757a226.39 226.39 0 0 0-13.943 14.561H4.347a4.35 4.35 0 0 0-3.055 1.253A4.34 4.34 0 0 0 0 115.285a4.341 4.341 0 0 0 4.347 4.342h89.016A226.978 226.978 0 0 0 44.27 260.952a227.277 227.277 0 0 0 16.17 84.509H49.095a4.296 4.296 0 0 0-4.347 4.342 4.285 4.285 0 0 0 2.687 3.978 4.307 4.307 0 0 0 1.66.311h15.057c1.537 3.495 3.234 6.989 4.93 10.378H17.92a4.289 4.289 0 0 0-4.294 4.289 4.34 4.34 0 0 0 1.254 3.052 4.35 4.35 0 0 0 3.04 1.29h55.827A230.305 230.305 0 0 0 91.667 400h361.631a229.033 229.033 0 0 0 30.273-52.315h42.414a4.35 4.35 0 0 0 3.074-1.272 4.338 4.338 0 0 0 1.273-3.07 4.3 4.3 0 0 0-2.687-3.978 4.313 4.313 0 0 0-1.66-.311h-39.074a238.984 238.984 0 0 0 4.931-15.091h60.864a4.307 4.307 0 0 0 3.036-1.256 4.28 4.28 0 0 0 1.258-3.033 4.341 4.341 0 0 0-4.294-4.342Z" fill="#EEEFF0"/><path d="M444.839 64.838h-85.917v284.289h85.917V64.837Z" fill="#D7D8D9"/><path d="M438.629 335.182H365.43v4.718h73.199v-4.718ZM438.629 324.828H365.43v4.718h73.199v-4.718ZM438.629 314.482H365.43v4.719h73.199v-4.719ZM438.629 304.131H365.43v4.718h73.199v-4.718ZM438.629 293.775H365.43v4.719h73.199v-4.719ZM438.629 283.432H365.43v4.718h73.199v-4.718ZM438.629 273.076H365.43v4.718h73.199v-4.718ZM438.629 262.725H365.43v4.718h73.199v-4.718ZM438.629 252.379H365.43v4.718h73.199v-4.718ZM438.629 242.025H365.43v4.719h73.199v-4.719ZM438.629 231.68H365.43v4.718h73.199v-4.718ZM438.629 221.328H365.43v4.718h73.199v-4.718ZM438.629 210.973H365.43v4.718h73.199v-4.718ZM438.629 200.629H365.43v4.718h73.199v-4.718ZM438.629 190.273H365.43v4.719h73.199v-4.719ZM438.629 179.92H365.43v4.718h73.199v-4.718ZM438.629 169.576H365.43v4.718h73.199v-4.718ZM438.629 159.221H365.43v4.718h73.199v-4.718ZM438.629 148.867H365.43v4.718h73.199v-4.718ZM438.629 138.523H365.43v4.719h73.199v-4.719ZM438.629 128.17H365.43v4.718h73.199v-4.718ZM438.629 117.824H365.43v4.718h73.199v-4.718ZM445.3 97.127h-43.269v4.718H445.3v-4.718ZM445.3 86.773h-43.269v4.719H445.3v-4.719ZM445.3 76.418h-43.269v4.718H445.3v-4.718Z" fill="#EEEFF0"/><path d="M387.547 128.17h-10.609v4.718h10.609v-4.718ZM426.743 169.576h-9.681v4.718h9.681v-4.718ZM401.221 200.629h-11.838v4.718h11.838v-4.718ZM421.899 221.328h-11.758v4.718h11.758v-4.718ZM379.711 242.025h-7.383v4.719h7.383v-4.719ZM395.297 262.684h-5.914v4.768h5.914v-4.768ZM424.128 273.076h-8.112v4.718h8.112v-4.718ZM386.317 304.131h-6.614v4.718h6.614v-4.718ZM429.346 335.182h-10.76v4.718h10.76v-4.718Z" fill="#fff"/><path d="M268.539 0h-30.57v83.142h30.57V0ZM269.006 230.424h-90.912v118.703h90.912V230.424Z" fill="#E4E5E6"/><path d="M268.53 83.143h-50.311v147.401h50.311V83.143Z" fill="#E4E5E6"/><path d="M264.344 217.117h-46.125v6.454h46.125v-6.454ZM264.344 203.002h-46.125v6.454h46.125v-6.454ZM264.344 188.887h-46.125v6.454h46.125v-6.454ZM264.344 174.773h-46.125v6.454h46.125v-6.454ZM264.344 160.668h-46.125v6.454h46.125v-6.454ZM264.344 146.553h-46.125v6.454h46.125v-6.454ZM264.344 132.438h-46.125v6.453h46.125v-6.453ZM264.344 118.324h-46.125v6.454h46.125v-6.454ZM264.344 104.211h-46.125v6.454h46.125v-6.454ZM264.344 90.106h-46.125v6.453h46.125v-6.453ZM264.331 75.49h-22.159v6.454h22.159V75.49ZM264.331 61.385h-22.159v6.454h22.159v-6.454ZM264.331 47.272h-22.159v6.453h22.159v-6.453ZM264.331 33.977h-22.159v6.453h22.159v-6.453ZM264.331 19.861h-22.159v6.454h22.159v-6.454ZM264.331 5.746h-22.159V12.2h22.159V5.746Z" fill="#D7D8D9"/><path d="M319.485 0h-30.571v83.142h30.571V0ZM360.923 230.424h-71.931v118.703h71.931V230.424Z" fill="#E4E5E6"/><path d="M274.002 258.354h-95.908v6.982h95.908v-6.982ZM274.002 244.389h-95.908v5.985h95.908v-5.985ZM274.116 230.184H218.07v6.453h56.046v-6.453Z" fill="#D7D8D9"/><path d="M339.226 83.143h-50.312v147.401h50.312V83.143Z" fill="#E4E5E6"/><path d="M339.225 217.117h-46.116v6.454h46.116v-6.454ZM339.225 203.002h-46.116v6.454h46.116v-6.454ZM339.225 188.887h-46.116v6.454h46.116v-6.454ZM339.225 174.773h-46.116v6.454h46.116v-6.454ZM339.225 160.668h-46.116v6.454h46.116v-6.454ZM339.225 146.553h-46.116v6.454h46.116v-6.454ZM339.225 132.438h-46.116v6.453h46.116v-6.453ZM339.225 118.324h-46.116v6.454h46.116v-6.454ZM360.919 329.178h-67.935v6.982h67.935v-6.982ZM360.919 315.213h-67.935v5.985h67.935v-5.985ZM360.919 301.246h-67.935v5.985h67.935v-5.985ZM360.919 287.281h-67.935v5.985h67.935v-5.985ZM360.919 272.318h-67.935v6.983h67.935v-6.983ZM360.919 258.354h-67.935v6.982h67.935v-6.982ZM360.919 244.389h-67.935v6.982h67.935v-6.982ZM360.919 230.424h-67.935v5.985h67.935v-5.985ZM339.225 104.211h-46.116v6.454h46.116v-6.454ZM339.225 90.106h-46.116v6.453h46.116v-6.453ZM288.996 1.994h-19.98v348.13h19.98V1.994ZM316.057 75.49h-22.159v6.454h22.159V75.49ZM316.057 61.385h-22.159v6.454h22.159v-6.454ZM316.057 47.272h-22.159v6.453h22.159v-6.453ZM316.057 33.977h-22.159v6.453h22.159v-6.453ZM316.057 19.861h-22.159v6.454h22.159v-6.454ZM316.057 5.746h-22.159V12.2h22.159V5.746Z" fill="#D7D8D9"/><path d="M164.034 196.249a7.01 7.01 0 0 0-1.658.199 10.253 10.253 0 0 0-12.528-7.333 10.254 10.254 0 0 0-4.616 2.635 8.622 8.622 0 0 0-6.04-5.728 8.642 8.642 0 0 0-8.076 2.037 11.079 11.079 0 0 0-3.906-6.923 11.103 11.103 0 0 0-7.542-2.534 11.106 11.106 0 0 0-7.303 3.158 11.076 11.076 0 0 0-3.308 7.227 6.711 6.711 0 0 0-2.388-.459 6.8 6.8 0 0 0-4.766 1.958 6.782 6.782 0 0 0-2.018 4.735 8.084 8.084 0 0 0-11.098 2.631 8.055 8.055 0 0 0-1.2 3.993 5.462 5.462 0 0 0-9.216-.053 5.443 5.443 0 0 0 3.891 8.342v.06h80.453v-.1a7.21 7.21 0 0 0 1.319.13 7.001 7.001 0 0 0 4.945-2.045 6.977 6.977 0 0 0 0-9.875 6.997 6.997 0 0 0-4.945-2.045v-.01Zm-35.246.867h-.4l.3-.329c.03.12.07.23.1.329Z" fill="#fff"/><path d="M428.528 25.436a4.33 4.33 0 0 0-1.079.15 6.675 6.675 0 0 0-4.699-4.769 6.692 6.692 0 0 0-6.48 1.697 5.619 5.619 0 0 0-5.395-3.91 5.57 5.57 0 0 0-3.826 1.506 7.224 7.224 0 0 0-2.545-4.516 7.24 7.24 0 0 0-9.679.41 7.218 7.218 0 0 0-2.153 4.714 4.407 4.407 0 0 0-5.994 4.08 5.25 5.25 0 0 0-7.222 1.726 5.225 5.225 0 0 0-.77 2.603 3.544 3.544 0 0 0-2.983-1.687 3.55 3.55 0 0 0-3.02 1.621 3.538 3.538 0 0 0 2.536 5.433v.05h52.45v-.07c.283.055.57.085.859.09a4.577 4.577 0 0 0 3.096-1.41 4.562 4.562 0 0 0 0-6.308 4.578 4.578 0 0 0-3.096-1.41Zm-22.978.579h-.26l.2-.22.06.22ZM505.995 250.982a5.71 5.71 0 0 0-4.206-5.237v-.17h-.929a6.182 6.182 0 0 0-.839 0 3.205 3.205 0 0 0-.31 0h-1.119v-.339a9.316 9.316 0 0 0-1.812-5.118 9.351 9.351 0 0 0-14.452-.717 7.748 7.748 0 0 0-3.162-4.632 7.77 7.77 0 0 0-10.369 1.432 7.743 7.743 0 0 0-1.784 5.315c0 .199.02.399.06.598a7.767 7.767 0 0 0-6.059.086 7.756 7.756 0 0 0-4.623 7.458 7.757 7.757 0 0 0 2.626 5.453 7.776 7.776 0 0 0 2.681 1.537l40.091.09a5.724 5.724 0 0 0 3.111-2.144 5.698 5.698 0 0 0 1.095-3.612Z" fill="#EEEFF0"/><path d="m96.195 64.47 11.409-55.193 1.809.23 1.808-.23L122.63 64.47l-3.007.38-10.21-49.357-10.21 49.356-3.008-.379ZM43.224 61.846h37.964V51.87H43.224v9.975ZM172.004 36.428h-2.348v16.469h2.348v-16.47Z" fill="#CACBCC"/><path d="m261.999 38.393-1.669-1.656-11.329 11.312v-9.497l.16-.16-.16-.149v-1.815h-2.347v1.157l-10.48 10.464v-9.497l.149-.16-.149-.149v-1.815h-2.348v1.157l-10.49 10.464v-9.497l.16-.16-.16-.149v-1.815h-2.348v1.157l-10.48 10.464v-9.497l.15-.16-.15-.149v-1.815h-2.348v1.157l-10.489 10.464v-9.497l.159-.16-.159-.149v-1.815h-2.348v1.157l-10.48 10.464v-9.497l.15-.16-.15-.149v-1.815h-2.358v1.157l-12.188 12.18 1.658 1.655 10.53-10.523v12.01h2.358V51.37l10.48-10.473v12.01h2.348V51.37l10.489-10.473v12.01h2.348V51.37l10.48-10.473v12.01h2.348V51.37l10.49-10.473v12.01h2.348V51.37l10.48-10.473v12.01h2.347V51.37l12.998-12.977ZM172.165 38.393l-1.668-1.656-11.329 11.312v-9.497l.159-.16-.159-.149v-1.815h-2.348v1.157l-10.48 10.464V36.428h-2.348v16.479h2.348V51.37l10.48-10.473v12.01h2.348V51.37l12.997-12.977ZM117.664 92.719v-2.345h-14.376l-.15-.16-.16.16h-1.818v2.345h1.159l10.48 10.473h-9.511l-.15-.159-.16.159h-1.818v2.345h1.159L112.799 116h-9.511l-.15-.149-.16.149h-1.818v2.345h1.159l9.78 9.765h-8.811l-.15-.15-.16.15h-1.818v2.354h1.159l10.48 10.464h-9.511l-.15-.16-.16.16h-1.818v2.344h1.159l10.48 10.474h-9.511l-.15-.16-.16.16h-1.818v2.344h1.159l10.48 10.464h-9.511l-.15-.16-.16.16h-1.818v2.344h1.159l10.48 10.474h-9.511l-.15-.16-.16.16h-1.818v2.344h1.159l10.48 10.464H101.16v1.766l-.28.279.28.279v.02h.03l11.019 11.013h-9.511l-.15-.16-.159.16h-1.819v2.344h1.159l10.48 10.464h-9.511l-.15-.15-.159.15h-1.819v2.344h1.159l10.48 10.473h-9.511l-.15-.159-.159.159h-1.819v2.345h1.159l10.48 10.463h-9.511l-.15-.149-.159.149h-1.819v2.355h1.159l10.48 10.463h-9.511l-.15-.159-.159.159h-1.819v2.345h1.159l10.48 10.463h-9.511l-.15-.149-.159.149h-1.819v2.355h1.159l10.48 10.463h-9.511l-.15-.159-.159.159h-1.819v2.344h1.159l10.48 10.474h-9.511l-.15-.159-.159.159h-1.819v2.344h1.159l10.48 10.464H100.57v2.344h16.504v-2.344h-1.538l-10.49-10.464h12.028v-2.344h-1.538l-10.49-10.474h12.028v-2.344h-1.538l-10.49-10.463h12.028v-2.355h-1.538l-10.49-10.463h12.028v-2.345h-1.538l-10.49-10.463h12.028v-2.355h-1.538l-10.49-10.463h12.028v-2.345h-1.538l-10.49-10.473h12.028v-2.344h-1.538l-10.49-10.464h12.028v-2.344h-1.538l-11.029-11.013h13.157v-2.344h-1.539l-10.49-10.464h12.029v-2.344h-1.539l-10.49-10.474h12.029v-2.344h-1.539l-10.49-10.464h12.029v-2.344h-1.539l-10.49-10.474h12.029v-2.344h-1.539l-10.49-10.464h8.812l.07.06.06-.06h3.087v-2.354h-2.248l-9.781-9.765h12.029V116h-1.539l-10.49-10.463h12.029v-2.345h-1.539l-10.49-10.473h12.029Z" fill="#CACBCC"/><path d="m110.459 2.38-.561 1.345 80.184 33.31.56-1.345-80.183-33.31Z" fill="#CACBCC"/><path d="m226.826 37.376-.37-.11-113.94-32.29.399-1.406.36.11 113.95 32.29-.399 1.406ZM68.424 35.542l-.69-.958.31-.22 42.419-30.852.69.967-.31.22-42.42 30.843Z" fill="#CACBCC"/><path d="m51.757 38.134-.57-1.047 58.025-32.519.569 1.038-58.024 32.528Z" fill="#CACBCC"/><path d="M105.281 5.247a4.417 4.417 0 0 0 2.732 4.083 4.432 4.432 0 0 0 4.823-.958 4.419 4.419 0 0 0-3.129-7.544 4.428 4.428 0 0 0-4.426 4.42Z" fill="#EEEFF0"/><path d="M48.293 49.984H81.28V33.246H48.293v16.738ZM115.255 339.342h3.057V77.287h-3.057v262.055ZM100.513 339.531h3.057V77.476h-3.057v262.055Z" fill="#CACBCC"/><path d="M138.099 326.334H80.734v15.382H138.1v-15.382Z" fill="#EEEFF0"/><path d="M138.099 328.848H80.734v3.66H138.1v-3.66ZM138.099 334.832H80.734v3.661H138.1v-3.661ZM92.922 82.703h28.752l4.236-4.987V60.738H92.922v21.965Z" fill="#CACBCC"/><path d="M101.156 63.262h12.468l7.423 11.481h-19.891V63.262Z" fill="#fff"/><path d="M41 49.985v2.992h268.972l.679-2.284-.729-.21-1.948-.498-47.235-13.965H144.371l-21.749 13.965H41Zm258.602 0H127.037l17.983-11.492h115.629l38.953 11.492Z" fill="#CACBCC"/><path d="m125.91 74.743-7.902-11.481h7.902v11.481ZM73.519 40.828H72v9.157h1.519v-9.157ZM65.55 40.828H64.03v9.157h1.519v-9.157ZM57.581 40.828h-1.519v9.157h1.519v-9.157ZM76.753 53.826h-1.519v4.17h1.519v-4.17ZM70.3 53.826H68.78v4.17H70.3v-4.17ZM63.862 53.826h-1.518v4.17h1.518v-4.17ZM57.41 53.826h-1.52v4.17h1.52v-4.17ZM50.956 53.826h-1.519v4.17h1.519v-4.17Z" fill="#fff"/><path d="M93.05 86.453h28.622v-3.75H93.049v3.75Z" fill="#CACBCC"/><path d="M109.703 6.462a1.39 1.39 0 0 1-1.291-.85 1.39 1.39 0 0 1 1.013-1.896 1.39 1.39 0 0 1 .806 2.642c-.167.069-.347.104-.528.104Zm0-1.995a.63.63 0 1 0 .62.629.632.632 0 0 0-.62-.638v.01Z" fill="#fff"/><path d="M195.077 341.066h-16.983v8.479h16.983v-8.479ZM213.226 341.066h-16.984v8.479h16.984v-8.479ZM231.452 341.066h-16.983v8.479h16.983v-8.479ZM249.765 341.066h-16.984v8.479h16.984v-8.479ZM203.663 331.422H186.68v8.479h16.983v-8.479ZM185.432 331.422h-7.393v8.479h7.393v-8.479ZM221.812 331.422h-16.984v8.479h16.984v-8.479ZM240.038 331.422h-16.983v8.479h16.983v-8.479ZM258.351 331.422h-16.984v8.479h16.984v-8.479ZM195.077 321.865h-16.983v8.479h16.983v-8.479ZM213.226 321.865h-16.984v8.479h16.984v-8.479ZM231.452 321.865h-16.983v8.479h16.983v-8.479ZM249.765 321.865h-16.984v8.479h16.984v-8.479ZM203.663 312.219H186.68v8.479h16.983v-8.479ZM185.441 312.219h-7.363v8.479h7.363v-8.479ZM221.812 312.219h-16.984v8.479h16.984v-8.479ZM240.038 312.219h-16.983v8.479h16.983v-8.479ZM258.351 312.219h-16.984v8.479h16.984v-8.479ZM195.077 302.664h-16.983v8.479h16.983v-8.479ZM213.226 302.664h-16.984v8.479h16.984v-8.479ZM231.452 302.664h-16.983v8.479h16.983v-8.479ZM249.765 302.664h-16.984v8.479h16.984v-8.479ZM203.663 293.018H186.68v8.478h16.983v-8.478ZM185.431 293.018h-7.283v8.478h7.283v-8.478ZM221.812 293.018h-16.984v8.478h16.984v-8.478ZM240.038 293.018h-16.983v8.478h16.983v-8.478ZM258.351 293.018h-16.984v8.478h16.984v-8.478ZM195.077 283.461h-16.983v8.479h16.983v-8.479ZM213.226 283.461h-16.984v8.479h16.984v-8.479ZM231.452 283.461h-16.983v8.479h16.983v-8.479ZM249.765 283.461h-16.984v8.479h16.984v-8.479ZM221.812 273.816h-16.984v8.479h16.984v-8.479ZM240.038 273.816h-16.983v8.479h16.983v-8.479ZM258.351 273.816h-16.984v8.479h16.984v-8.479Z" fill="#D7D8D9"/><path d="M199.403 317.706a1.667 1.667 0 0 1-1.669-1.666v-22.673a1.671 1.671 0 0 1 2.848-1.178c.313.312.489.736.489 1.178v22.673a1.665 1.665 0 0 1-1.668 1.666ZM212.723 307.691a1.669 1.669 0 0 1-1.668-1.665v-12.669a1.664 1.664 0 0 1 1.668-1.666c.22-.001.437.041.64.125a1.651 1.651 0 0 1 1.028 1.541v12.669a1.662 1.662 0 0 1-1.668 1.665ZM206.075 301.687a1.675 1.675 0 0 1-1.669-1.676v-6.664a1.667 1.667 0 0 1 3.337 0v6.664a1.673 1.673 0 0 1-.485 1.184 1.673 1.673 0 0 1-1.183.492Z" fill="#006940"/><path d="M202.731 294.594a1.821 1.821 0 0 1 1.668 1.117v-5.217a1.663 1.663 0 0 0-1.668-1.666 1.671 1.671 0 0 0-1.669 1.666v5.217a1.812 1.812 0 0 1 1.669-1.117ZM209.377 296.539a1.821 1.821 0 0 1 1.689 1.117v-5.227a1.675 1.675 0 0 0-1.674-1.546 1.677 1.677 0 0 0-1.673 1.546v5.227a1.804 1.804 0 0 1 1.658-1.117ZM186.84 302.354a1.683 1.683 0 0 0 1.186-.484 1.677 1.677 0 0 0 .493-1.182v-7.661c0-.219-.044-.437-.128-.64a1.683 1.683 0 0 0-.909-.902 1.683 1.683 0 0 0-1.821.364 1.665 1.665 0 0 0-.489 1.178v7.661a1.67 1.67 0 0 0 1.668 1.666ZM192.778 311.732a1.668 1.668 0 0 0 1.668-1.665v-16.669a1.665 1.665 0 0 0-1.668-1.666 1.671 1.671 0 0 0-1.669 1.666v16.669a1.667 1.667 0 0 0 1.669 1.665Z" fill="#006940"/><path d="M196.075 294.643a1.797 1.797 0 0 0-1.669 1.117v-5.217a1.667 1.667 0 0 1 3.337 0v5.217a1.804 1.804 0 0 0-1.668-1.117ZM189.788 296.58a1.483 1.483 0 0 0-1.318 1.117v-5.217a1.351 1.351 0 0 1 .248-1.162 1.351 1.351 0 0 1 1.07-.521 1.366 1.366 0 0 1 1.071.521 1.354 1.354 0 0 1 .248 1.162v5.217a1.464 1.464 0 0 0-1.319-1.117Z" fill="#006940"/><path d="M214.384 283.49h-29.212v9.576h29.212v-9.576Z" fill="#006940"/><path d="M186.401 282.035h26.664a1.226 1.226 0 0 1 1.229 1.227v.688h-29.122v-.658a1.227 1.227 0 0 1 1.229-1.257Z" fill="#006940"/><path d="M142.799 393.782c24.647 0 44.627-1.193 44.627-2.664 0-1.47-19.98-2.663-44.627-2.663-24.647 0-44.627 1.193-44.627 2.663 0 1.471 19.98 2.664 44.627 2.664Z" fill="#fff"/><path d="M143.637 303.259h14.626V299h-37.674v4.259h2.567l-23.437 87.332 3.207.15 23.447-87.482h9.901l2.058 8.569-19.172 79.411 3.367.12 17.433-72.748 17.413 72.688 3.247-.429-19.041-79.042 2.058-8.569Zm-4.106 0h.859l-.43 1.796-.429-1.796Z" fill="#006940"/><path d="m155.622 301.343-3.497-.997 25.225 90.425 3.377-.15-25.105-89.278ZM124.007 376.684h-19.132v2.892h19.132v-2.892ZM126.78 365.762h-19.132v2.893h19.132v-2.893ZM128.835 355.238h-19.132v2.893h19.132v-2.893ZM131.397 343.756h-19.131v2.893h19.131v-2.893ZM134.733 331.797h-19.131v2.893h19.131v-2.893ZM138.397 320.146h-19.131v2.893h19.131v-2.893ZM140.435 308.924h-18.482v2.893h18.482v-2.893Z" fill="#006940"/><path d="M175.632 377.154H156.5v2.893h19.132v-2.893ZM172.147 365.762h-19.131v2.893h19.131v-2.893ZM170.022 355.238h-19.131v2.893h19.131v-2.893ZM166.475 343.756h-19.131v2.893h19.131v-2.893ZM164.311 331.797H145.18v2.893h19.131v-2.893ZM160.444 320.146h-19.132v2.893h19.132v-2.893ZM156.121 308.426l-16.285.498v2.893l16.285-.498v-2.893Z" fill="#006940"/><path d="M143.626 303.259h14.626V299h-37.674v4.259h15.685l2.058 8.569 1.629 6.783 17.413 72.688 3.077-.738-18.872-78.733 2.058-8.569Zm-4.106 0h.859l-.429 1.796-.43-1.796Z" fill="#006940"/><rect x="228.82" y="394.016" width="195.812" height="5.985" rx="2.993" fill="#004D2F"/><path d="M333.058 127.68h-11.714v271.903h11.714V127.68Z" fill="#006940"/><path d="m445.089 174.454-40.654 28.056-.298.198h-172.84V146.25h172.84l22.586 15.542 18.366 12.662ZM245.795 272.029h172.841V215.57H245.795l-40.951 28.254 40.951 28.205Z" fill="#138E56"/><path d="M378.872 215.521s-19.756 52.735-145.341 48.067l12.261 8.441h172.84v-56.458l-39.76-.05Z" fill="#097C4A"/><path d="M418.639 221.627s-14.196 48.166-67.061 50.102l67.061.298v-50.4Z" fill="#005B34"/><path d="M411.591 222.62v42.406H247.984l-30.726-21.203 30.726-21.203h163.607Zm2.333-2.284H247.289l-34.101 23.487 34.101 23.487h166.635v-46.974Z" fill="#fff"/><path d="M386.314 146.25s-29.386 52.982-154.97 48.315v8.143h172.84l40.902-28.254-40.902-28.204h-17.87Z" fill="#097C4A"/><path d="m445.091 174.453-40.653 28.055-40.704-.149c37.775-1.34 55.794-26.416 62.991-40.568l18.366 12.662Z" fill="#005B34"/><path d="m401.953 153.301 30.726 21.153-30.726 21.203H238.346v-42.356h163.607Zm.745-2.334H236.062v47.023h166.636l34.101-23.536-34.101-23.487Z" fill="#fff"/><path d="M333.058 202.709h-11.714v5.07h11.714v-5.07ZM333.058 271.977h-11.714v5.069h11.714v-5.069Z" fill="#005B34"/><path d="M333.059 271.977h-4.567v127.554h4.567V271.977Z" fill="#005B34"/><path d="M303.483 181.37v-2.424h-8.014v-4.355h7.849v-2.424h-7.849v-4.072h8.014v-2.424h-10.772v15.699h10.772ZM318.477 181.37l-3.842-6.167c1.886-.306 3.724-1.812 3.724-4.613 0-2.895-2.027-4.919-5.138-4.919h-6.906v15.699h2.757v-5.861h2.735l3.488 5.861h3.182Zm-2.946-10.78c0 1.507-1.132 2.495-2.687 2.495h-3.772v-4.99h3.772c1.555 0 2.687.989 2.687 2.495ZM333.278 181.37l-3.842-6.167c1.885-.306 3.724-1.812 3.724-4.613 0-2.895-2.027-4.919-5.138-4.919h-6.907v15.699h2.758v-5.861h2.734l3.489 5.861h3.182Zm-2.947-10.78c0 1.507-1.131 2.495-2.687 2.495h-3.771v-4.99h3.771c1.556 0 2.687.989 2.687 2.495ZM335.209 173.532c0 4.684 3.323 8.12 8.037 8.12 4.715 0 8.038-3.436 8.038-8.12 0-4.684-3.323-8.12-8.038-8.12-4.714 0-8.037 3.436-8.037 8.12Zm13.247 0c0 3.225-2.051 5.673-5.21 5.673-3.182 0-5.209-2.448-5.209-5.673 0-3.248 2.027-5.672 5.209-5.672 3.159 0 5.21 2.424 5.21 5.672ZM366.102 181.37l-3.842-6.167c1.885-.306 3.724-1.812 3.724-4.613 0-2.895-2.027-4.919-5.139-4.919h-6.906v15.699h2.758v-5.861h2.734l3.489 5.861h3.182Zm-2.947-10.78c0 1.507-1.131 2.495-2.687 2.495h-3.771v-4.99h3.771c1.556 0 2.687.989 2.687 2.495ZM316.683 250.999v-3.554h2.098v-2.425h-2.098v-9.72h-3.795l-6.458 9.932v2.213h7.495v3.554h2.758Zm-2.758-5.979h-4.785l4.785-7.249v7.249ZM320.409 243.161c0 3.954 1.886 8.12 6.293 8.12 4.408 0 6.294-4.166 6.294-8.12 0-3.954-1.886-8.097-6.294-8.097-4.407 0-6.293 4.143-6.293 8.097Zm9.782 0c0 2.989-.92 5.672-3.489 5.672s-3.488-2.683-3.488-5.672.919-5.649 3.488-5.649 3.489 2.66 3.489 5.649ZM344.88 250.999v-3.554h2.098v-2.425h-2.098v-9.72h-3.795l-6.458 9.932v2.213h7.495v3.554h2.758Zm-2.758-5.979h-4.784l4.784-7.249v7.249Z" fill="#fff"/></svg>