<svg width="139" height="20" fill="none" xmlns="http://www.w3.org/2000/svg"><path d="M25.205 5.185c.649-.115 1.923-.231 3.128-.231 1.482 0 2.386.139 3.173.602.742.393 1.275 1.134 1.275 2.106 0 .95-.556 1.806-1.761 2.269v.023c1.228.324 2.131 1.25 2.131 2.639 0 .995-.44 1.759-1.112 2.268-.787.625-2.085.972-4.216.972-1.205 0-2.085-.069-2.618-.162V5.185Zm2.41 4.098h.787c1.297 0 1.97-.533 1.97-1.32 0-.81-.626-1.25-1.715-1.25-.533 0-.834.023-1.043.07v2.5Zm0 4.745c.231.046.532.046.95.046 1.088 0 2.061-.44 2.061-1.55 0-1.089-.973-1.505-2.178-1.505h-.834v3.009Zm8.803-1.412c.07 1.018 1.066 1.504 2.2 1.504a6.8 6.8 0 0 0 2.155-.324l.325 1.644c-.788.324-1.761.486-2.827.486-2.64 0-4.147-1.528-4.147-3.982 0-1.967 1.252-4.143 3.939-4.143 2.525 0 3.475 1.967 3.475 3.889 0 .417-.046.787-.07.972l-5.05-.046Zm2.85-1.644c0-.579-.255-1.574-1.344-1.574-1.043 0-1.46.95-1.506 1.574h2.85Zm3.359-.509c0-.972-.023-1.782-.07-2.477h2.108l.116 1.088h.047c.324-.51 1.088-1.25 2.409-1.25 1.599 0 2.78 1.065 2.78 3.357v4.606h-2.41v-4.352c0-.995-.347-1.69-1.227-1.69-.672 0-1.066.463-1.251.903-.07.162-.07.37-.07.602v4.49h-2.432v-5.277Zm7.112 6.805c.625-.046 1.135-.185 1.436-.509.348-.37.487-.995.487-2.523v-6.25h2.409v6.829c0 1.69-.37 2.731-1.089 3.38-.718.648-1.853.948-2.988.948l-.255-1.875Zm3.08-10.3c-.81 0-1.343-.58-1.343-1.297 0-.74.533-1.296 1.367-1.296s1.344.556 1.344 1.296c.023.718-.51 1.297-1.367 1.297Zm9.291 6.898c0 .74.023 1.458.139 1.875H60.07l-.139-.787h-.046c-.51.625-1.298.949-2.224.949-1.576 0-2.526-1.135-2.526-2.385 0-2.013 1.807-2.963 4.564-2.963v-.092c0-.417-.231-.995-1.413-.995-.788 0-1.645.277-2.154.578l-.44-1.55c.532-.302 1.598-.695 3.034-.695 2.595 0 3.406 1.528 3.406 3.356v2.709h-.023Zm-2.34-1.783c-1.274 0-2.27.301-2.27 1.227 0 .625.416.926.95.926a1.33 1.33 0 0 0 1.25-.903c.023-.115.047-.277.047-.416v-.834h.023Zm3.637-1.62c0-.972-.023-1.782-.07-2.477H65.4l.092 1.065h.046c.325-.51 1.043-1.25 2.364-1.25 1.019 0 1.806.532 2.13 1.342h.024c.301-.416.626-.74 1.02-.949.44-.231.903-.393 1.482-.393 1.506 0 2.618 1.042 2.618 3.38v4.583h-2.363V11.55c0-1.134-.37-1.783-1.135-1.783-.58 0-.95.394-1.135.834-.047.185-.07.416-.07.602v4.56H68.11v-4.352c0-.972-.347-1.644-1.135-1.644-.626 0-.996.487-1.135.857-.07.185-.093.417-.093.625v4.514h-2.363v-5.301h.023Zm14.247-3.495c-.81 0-1.343-.58-1.343-1.297 0-.74.533-1.296 1.367-1.296s1.343.556 1.343 1.296c.023.718-.51 1.297-1.367 1.297ZM76.45 7.986h2.41v7.778h-2.41V7.986Zm3.73 2.477c0-.972-.023-1.782-.07-2.477h2.109l.115 1.088h.047c.324-.51 1.088-1.25 2.409-1.25 1.598 0 2.78 1.065 2.78 3.357v4.606h-2.41v-4.352c0-.995-.347-1.69-1.227-1.69-.672 0-1.066.463-1.251.903-.07.162-.07.37-.07.602v4.49h-2.409v-5.277h-.023Zm21.707 1.18a121.77 121.77 0 0 1-.093-4.398h-.023a62.97 62.97 0 0 1-1.205 4.144l-1.297 4.19h-1.9l-1.135-4.144a62.22 62.22 0 0 1-.973-4.19h-.023a235.477 235.477 0 0 1-.185 4.445l-.209 4.074h-2.247l.695-10.718h3.243l1.043 3.588a43.48 43.48 0 0 1 .903 3.82h.07c.278-1.25.648-2.64 1.02-3.843l1.134-3.565h3.174l.579 10.718h-2.363l-.208-4.12Zm7.344 4.283c-2.27 0-4.031-1.505-4.031-4.005 0-2.523 1.668-4.12 4.17-4.12 2.363 0 3.961 1.643 3.961 4.005 0 2.824-2.015 4.12-4.1 4.12Zm.046-1.736c.95 0 1.552-.95 1.552-2.338 0-1.134-.44-2.315-1.552-2.315-1.135 0-1.598 1.18-1.598 2.338 0 1.32.556 2.315 1.598 2.315Zm9.151 1.736c-2.27 0-4.031-1.505-4.031-4.005 0-2.523 1.645-4.12 4.17-4.12 2.363 0 3.961 1.643 3.961 4.005 0 2.824-2.015 4.12-4.1 4.12Zm.046-1.736c.95 0 1.552-.95 1.552-2.338 0-1.134-.44-2.315-1.552-2.315-1.135 0-1.598 1.18-1.598 2.338 0 1.32.556 2.315 1.598 2.315Zm4.935-3.657a36.3 36.3 0 0 0-.07-2.57h2.062l.093 1.435h.069c.394-1.134 1.344-1.62 2.109-1.62.231 0 .324.023.509.046v2.269c-.208-.024-.394-.07-.672-.07-.88 0-1.505.463-1.644 1.227a3.394 3.394 0 0 0-.047.533v3.935h-2.409v-5.185Zm7.483 2.083c.069 1.018 1.066 1.504 2.201 1.504.834 0 1.506-.115 2.154-.324l.325 1.644c-.788.324-1.761.486-2.827.486-2.641 0-4.147-1.528-4.147-3.982 0-1.967 1.251-4.143 3.939-4.143 2.525 0 3.475 1.967 3.475 3.889 0 .417-.047.787-.07.972l-5.05-.046Zm2.849-1.644c0-.579-.254-1.574-1.343-1.574-1.043 0-1.46.95-1.506 1.574h2.849Zm3.939-3.565c.741 0 1.32.602 1.32 1.343 0 .764-.579 1.343-1.32 1.343a1.344 1.344 0 0 1-1.344-1.343c0-.74.602-1.343 1.344-1.343Zm0 .209c-.603 0-1.066.509-1.066 1.134 0 .648.486 1.134 1.089 1.134.602 0 1.065-.509 1.065-1.134 0-.625-.486-1.134-1.088-1.134Zm-.255 1.921h-.232V8.032c.116-.023.255-.046.417-.046.232 0 .371.046.463.116.093.07.139.162.139.3 0 .21-.139.325-.301.371v.023c.139.023.232.14.255.37.046.232.07.325.093.371h-.255c-.046-.046-.07-.185-.093-.393-.046-.186-.139-.255-.324-.255h-.162v.648Zm0-.833h.162c.208 0 .371-.07.371-.255 0-.139-.093-.255-.371-.255-.07 0-.139 0-.162.024v.486Z" fill="#fff"/><path d="M12.278 0 0 20h24.534L12.277 0Zm3.846 18.125H8.456s-.185 0-.185-.185c0-.023.023-.093.023-.093l2.293-3.75 1.274 2.06-.602.95c-.023.023-.023.069-.023.092 0 .093.07.185.185.185h1.715c.092 0 .185-.07.185-.185 0-.023 0-.07-.023-.093l-3.082-5.023-.023-.023a.177.177 0 0 0-.115-.046c-.116 0-.163.093-.163.093l-3.66 6.018H3.73l6.208-10.07a.195.195 0 0 1 .163-.092c.115 0 .162.093.162.093l6.046 9.814c.023.023.023.047.023.093-.023.07-.092.162-.208.162Zm-1.483-5.995a.195.195 0 0 0-.162-.093c-.116 0-.162.093-.162.093l-.348.578-1.274-2.06 1.622-2.639s.046-.092.162-.092c.07 0 .116.046.162.092l6.163 10.07h-2.48l-3.683-5.95Z" fill="#CD163F"/></svg>