
<svg width="24" height="24" viewBox="0 0 24 24" fill="none" xmlns="http://www.w3.org/2000/svg">
<g clip-path="url(#clip0_12925_127727)">
<path d="M23.5186 12.2754C23.5186 11.4569 23.4463 10.6385 23.3139 9.83203H12V14.4539H18.4754C18.2106 15.9464 17.344 17.2583 16.0802 18.1008V21.0978H19.9438C22.2187 19.0035 23.5186 15.9223 23.5186 12.2754Z" fill="#2A84FC"/>
<path d="M12.0015 24.0019C15.2392 24.0019 17.9714 22.9427 19.9574 21.1012L16.0938 18.1042C15.0226 18.8384 13.6264 19.2476 12.0136 19.2476C8.88416 19.2476 6.22418 17.1413 5.27333 14.3008H1.27734V17.3941C3.31145 21.4502 7.4639 24.0019 12.0015 24.0019Z" fill="#00AC47"/>
<path d="M5.26068 14.2965C4.75516 12.8041 4.75516 11.1912 5.26068 9.69875V6.60547H1.27672C-0.420367 9.99965 -0.420367 13.9956 1.27672 17.3778L5.26068 14.2845V14.2965Z" fill="#FFBA00"/>
<path d="M12.0015 4.75511C13.7106 4.73104 15.3596 5.36895 16.5993 6.54849L20.0296 3.1182C17.8511 1.0841 14.9744 -0.0352611 12.0015 0.00084721C7.4639 0.00084721 3.31145 2.56454 1.27734 6.60867L5.2613 9.70195C6.21215 6.86143 8.87213 4.74307 12.0015 4.74307V4.75511Z" fill="#FC2C25"/>
</g>
<defs>
<clipPath id="clip0_12925_127727">
<rect width="23.5186" height="24" fill="white"/>
</clipPath>
</defs>
</svg>
