<svg width="245" height="50" viewBox="0 0 245 50" fill="none" xmlns="http://www.w3.org/2000/svg">
<path d="M0 50.0004L5.85678 27.1227H8.9165L6.40175 36.9326H25.5709L28.0856 27.1128H31.1454L25.2787 49.9839H22.2289L25.0982 38.7726H5.93229L3.05971 49.9839L0 50.0004Z" fill="#006940"/>
<path d="M28.6094 49.9843L47.2007 27.0967H50.6642L57.2301 49.9678H54.0818L52.1842 42.7893H37.4274L31.761 49.981L28.6094 49.9843ZM38.931 40.9559H51.6196L48.3366 28.9499L38.931 40.9559Z" fill="#006940"/>
<path d="M66.3166 39.5705L63.6574 49.9607H60.5977L66.4544 27.083H79.143C86.2506 27.083 89.7109 28.857 88.6308 33.0811C87.8888 35.9729 85.9683 37.4997 81.9336 38.6868C85.5218 39.6067 85.0162 42.4656 84.4877 44.8827C83.7359 48.345 83.8968 49.298 84.5928 49.7431L84.5336 49.964H81.1489C80.2888 48.4076 81.7005 44.1177 81.6512 42.3799C81.5659 39.9002 78.992 39.5837 75.9323 39.587L66.3166 39.5705ZM76.3296 37.7206C80.8732 37.7206 84.7241 36.3818 85.5448 33.1734C86.4246 29.7408 82.8561 28.9164 78.7622 28.9197H69.0414L66.7893 37.7206H76.3296Z" fill="#006940"/>
<path d="M89.6875 49.9476L95.5344 27.0698H106.605C110.216 27.0698 113.538 27.2248 116.155 28.7812C119.864 30.9707 119.851 35.419 119.07 38.4691C118.205 42.0456 116.009 45.1537 112.934 47.1546C109.366 49.509 105.022 49.9542 100.748 49.9575L89.6875 49.9476ZM93.2167 48.1043H100.554C103.299 48.1043 105.715 47.9757 108.433 47.0524C113.151 45.4927 115.232 41.5852 116.027 38.479C116.883 35.142 116.782 31.4917 112.678 29.777C110.928 29.0483 108.174 28.923 105.472 28.923H98.1313L93.2167 48.1043Z" fill="#006940"/>
<path d="M145.861 46.8651H145.953L158.1 27.0342H161.252L146.889 49.9185H143.508L141.17 29.7117H141.078L128.39 49.9251H125.011L122.5 27.0408H125.56L127.461 46.8618H127.549L140.139 27.0408H143.56L145.861 46.8651Z" fill="#006940"/>
<path d="M151.965 49.9112L170.556 27.04H174.02L180.586 49.9112H177.437L175.54 42.7326H160.766L155.103 49.9145L151.965 49.9112ZM162.283 40.8893H174.985L171.702 28.8668L162.283 40.8893Z" fill="#006940"/>
<path d="M189.648 39.4983L186.985 49.8886H183.926L189.786 27.0142H202.471C209.582 27.0142 213.042 28.7849 211.959 33.0122C211.217 35.9041 209.3 37.4308 205.262 38.6179C208.853 39.5379 208.344 42.3968 207.816 44.8105C207.064 48.2729 207.225 49.2291 207.921 49.671L207.865 49.8952H204.49C203.63 48.3388 205.042 44.0488 204.996 42.3111C204.907 39.8314 202.337 39.5148 199.277 39.5181L189.648 39.4983ZM199.658 37.6517C204.201 37.6517 208.052 36.313 208.876 33.1013C209.753 29.6719 206.184 28.8475 202.09 28.8508H192.379L190.131 37.6517H199.658Z" fill="#006940"/>
<path d="M212.402 49.8157L218.151 26.938H239.309L238.847 28.7813H220.692L218.614 37.0249H235.002L234.539 38.8682H218.151L215.869 47.956H234.464L234.011 49.7926L212.402 49.8157Z" fill="#006940"/>
<path d="M0.0859375 23.4486L16.2578 0.465332H25.6568L30.1643 23.3826H20.8112L20.3976 20.2764H11.3497L9.13047 23.4552L0.0859375 23.4486ZM19.0844 7.75271L14.1206 15.7062L20.0036 15.6699L19.0844 7.75271Z" fill="#F58220"/>
<path d="M35.214 0.527832H44.6229L41.0675 13.9155C40.4831 16.0984 40.5422 17.9747 44.4424 17.9483C47.8599 17.9285 49.3077 16.26 49.9545 13.8594L53.5198 0.541022H63.0075L59.6523 13.0714C57.7449 20.1774 52.6104 23.3132 43.0012 23.3726C34.0387 23.4287 29.7545 20.8467 31.7997 13.2164L35.214 0.527832Z" fill="#F58220"/>
<path d="M60.1641 23.2708L66.1653 0.45246L80.1408 0.363429C86.7067 0.320562 91.6311 1.49116 90.4526 6.02516C89.8354 8.36965 87.4355 10.0942 85.3246 11.0241C88.3252 11.6374 89.4743 13.7511 88.8242 16.2209C87.4815 21.3253 82.0187 23.1455 74.4219 23.1785L60.1641 23.2708ZM72.2585 13.6687L71.1521 17.8861L75.3346 17.8564C77.6917 17.8564 79.5794 17.4508 80.0292 15.7395C80.5545 13.761 78.3549 13.6324 75.305 13.6489L72.2585 13.6687ZM74.353 5.7152L73.3517 9.51716L77.3339 9.49408C79.2413 9.49408 80.7974 8.80491 81.1487 7.47604C81.6149 5.70201 79.7534 5.68222 77.7246 5.69541L74.353 5.7152Z" fill="#F58220"/>
<path d="M141.806 9.00934C142.134 6.70113 140.63 5.38214 137.709 5.41512C134.426 5.4349 131.885 7.63101 130.759 11.9078C129.938 15.014 130.04 17.9323 134.777 17.8993C137.778 17.8795 139.626 16.2506 140.542 14.1171L149.504 14.061C147.167 19.7854 141.008 23.2675 133.506 23.3137C124.111 23.3731 119.61 18.9182 121.504 11.7199C123.398 4.52151 130.805 0.0534571 138.739 0.000697873C147.426 -0.0553589 151.398 3.26848 150.65 8.95329L141.806 9.00934Z" fill="#F58220"/>
<path d="M149.375 23.4131L155.478 0.522124L164.805 0.459473L162.76 8.12935H171.489L173.534 0.525422H182.851L176.653 23.4131H167.461L169.949 14.2362H161.144L158.735 23.4131H149.375Z" fill="#F58220"/>
<path d="M212.182 11.7923C210.212 19.3303 202.566 23.617 194.155 23.6631C185.232 23.7423 180.406 19.4556 182.392 11.9209C184.221 4.96986 191.453 0.40948 200.298 0.350126C210.439 0.287474 213.722 5.93601 212.182 11.7923ZM191.693 11.9242C190.948 14.7534 191.122 18.285 195.583 18.2553C199.605 18.2289 201.903 15.4986 202.865 11.8516C203.659 8.83777 202.924 5.64914 198.794 5.76784C194.569 5.79422 192.428 9.12465 191.693 11.9242Z" fill="#F58220"/>
<path d="M233.248 12.7288L236.078 0.574345H245.001L239.144 23.274H230.565L223.471 10.7932L220.615 23.274H211.57L217.562 0.564453H226.133L233.248 12.7288Z" fill="#F58220"/>
<path d="M94.6451 0.544922H104.054L100.502 13.9326C99.9142 16.1155 99.9733 17.9885 103.873 17.9654C107.291 17.9423 108.742 16.2771 109.386 13.8765L112.941 0.558112H122.429L119.07 13.0884C117.166 20.1945 112.028 23.3303 102.422 23.3897C93.4567 23.4457 89.1724 20.8638 91.2177 13.2335L94.6451 0.544922Z" fill="#F58220"/>
</svg>
